<svg width="375" height="714" viewBox="0 0 375 714" fill="none" xmlns="http://www.w3.org/2000/svg">
<g clip-path="url(#clip0_328_2571)">
<circle cx="188" cy="765" r="169" fill="#545BFE"/>
<mask id="mask0_328_2571" style="mask-type:luminance" maskUnits="userSpaceOnUse" x="19" y="596" width="338" height="338">
<circle cx="188" cy="765" r="169" fill="white"/>
</mask>
<g mask="url(#mask0_328_2571)">
<path fill-rule="evenodd" clip-rule="evenodd" d="M160.209 616.28C160.209 611.302 156.173 607.267 151.195 607.267H-2.78232C-7.76025 607.267 -11.7957 611.302 -11.7957 616.28C-11.7957 621.258 -7.76025 625.294 -2.78232 625.294H33.271C38.2489 625.294 42.2843 629.329 42.2843 634.307C42.2843 639.285 38.2489 643.32 33.271 643.32H28.7643C23.7864 643.32 19.751 647.356 19.751 652.334C19.751 657.311 23.7864 661.347 28.7643 661.347H25.7599C30.7378 661.347 34.7732 665.382 34.7732 670.36C34.7732 675.338 30.7378 679.374 25.7599 679.374H18.2488C13.2709 679.374 9.23546 683.409 9.23546 688.387C9.23546 693.365 13.2709 697.4 18.2488 697.4H107.631C112.609 697.4 116.644 693.365 116.644 688.387C116.644 683.409 112.609 679.374 107.631 679.374H103.875L103.875 679.366C99.0718 679.169 95.2379 675.212 95.2379 670.36C95.2379 665.508 99.0718 661.552 103.875 661.355L103.875 661.347H155.702C160.68 661.347 164.715 657.311 164.715 652.334C164.715 647.356 160.68 643.32 155.702 643.32H150.444L150.444 643.312C145.641 643.116 141.807 639.159 141.807 634.307C141.807 629.455 145.641 625.498 150.444 625.301L150.444 625.294H151.195C156.173 625.294 160.209 621.258 160.209 616.28ZM92.6088 715.427C97.5868 715.427 101.622 719.462 101.622 724.44C101.622 729.418 97.5868 733.453 92.6088 733.453C87.6309 733.453 83.5955 729.418 83.5955 724.44C83.5955 719.462 87.6309 715.427 92.6088 715.427ZM64.8176 742.467C64.8176 737.489 60.7822 733.453 55.8043 733.453H29.5154C24.5375 733.453 20.502 737.489 20.502 742.467C20.502 747.445 24.5375 751.48 29.5154 751.48H55.8043C60.7822 751.48 64.8176 747.445 64.8176 742.467ZM128.662 850.627C128.662 855.605 124.626 859.64 119.648 859.64H123.404C118.426 859.64 114.391 863.675 114.391 868.653C114.391 873.631 118.426 877.667 123.404 877.667H145.186C150.164 877.667 154.2 873.631 154.2 868.653C154.2 863.675 150.164 859.64 145.186 859.64H148.191V859.632C143.387 859.435 139.553 855.479 139.553 850.627C139.553 845.775 143.387 841.818 148.191 841.621V841.613H168.471C173.449 841.613 177.484 837.578 177.484 832.6C177.484 827.622 173.449 823.587 168.471 823.587V823.579C163.667 823.382 159.833 819.425 159.833 814.573C159.833 809.721 163.667 805.765 168.471 805.568V805.56H172.977C177.955 805.56 181.991 801.525 181.991 796.547C181.991 791.569 177.955 787.533 172.977 787.533H134.671V787.526C129.867 787.329 126.033 783.372 126.033 778.52C126.033 773.668 129.867 769.711 134.671 769.514V769.507H133.168C138.146 769.507 142.182 765.471 142.182 760.493C142.182 755.515 138.146 751.48 133.168 751.48H96.364C91.386 751.48 87.3506 755.515 87.3506 760.493C87.3506 765.471 91.386 769.507 96.364 769.507C101.342 769.507 105.377 773.542 105.377 778.52C105.377 783.498 101.342 787.533 96.364 787.533C91.386 787.533 87.3506 791.569 87.3506 796.547C87.3506 801.525 91.386 805.56 96.364 805.56H103.875C108.853 805.56 112.888 809.595 112.888 814.573C112.888 819.551 108.853 823.587 103.875 823.587H105.377C100.399 823.587 96.364 827.622 96.364 832.6C96.364 837.578 100.399 841.613 105.377 841.613H119.648C124.626 841.613 128.662 845.649 128.662 850.627Z" fill="#4FCDF9"/>
</g>
<mask id="mask1_328_2571" style="mask-type:luminance" maskUnits="userSpaceOnUse" x="19" y="596" width="338" height="338">
<circle cx="188" cy="765" r="169" fill="white"/>
</mask>
<g mask="url(#mask1_328_2571)">
<path fill-rule="evenodd" clip-rule="evenodd" d="M335.969 634.307C335.969 629.329 331.934 625.293 326.956 625.293H308.929C303.951 625.293 299.916 629.329 299.916 634.307C299.916 639.284 303.951 643.32 308.929 643.32H326.956C331.934 643.32 335.969 639.284 335.969 634.307ZM514.733 643.32C519.711 643.32 523.747 647.355 523.747 652.333C523.747 657.311 519.711 661.347 514.733 661.347H509.476L509.476 661.354C504.672 661.551 500.838 665.508 500.838 670.36C500.838 675.212 504.672 679.169 509.476 679.366L509.476 679.373H521.493C526.471 679.373 530.507 683.409 530.507 688.387C530.507 693.365 526.471 697.4 521.493 697.4H390.8C385.822 697.4 381.787 693.365 381.787 688.387C381.787 683.409 385.822 679.373 390.8 679.373H387.045C392.022 679.373 396.058 675.338 396.058 670.36C396.058 665.382 392.022 661.347 387.045 661.347H356.249C351.271 661.347 347.236 657.311 347.236 652.333C347.236 647.355 351.271 643.32 356.249 643.32H514.733ZM311.934 841.613C316.911 841.613 320.947 837.578 320.947 832.6C320.947 827.622 316.911 823.587 311.934 823.587C306.956 823.587 302.92 819.551 302.92 814.573C302.92 809.595 306.956 805.56 311.934 805.56H309.68C314.658 805.56 318.694 801.525 318.694 796.547C318.694 791.569 314.658 787.533 309.68 787.533H275.88C270.902 787.533 266.867 783.498 266.867 778.52C266.867 773.542 270.902 769.507 275.88 769.507C280.858 769.507 284.894 765.471 284.894 760.493C284.894 755.515 280.858 751.48 275.88 751.48H250.342C245.365 751.48 241.329 747.445 241.329 742.467C241.329 737.489 245.365 733.453 250.342 733.453H269.871C274.849 733.453 278.885 729.418 278.885 724.44C278.885 719.462 274.849 715.427 269.871 715.427C264.893 715.427 260.858 711.391 260.858 706.413C260.858 701.435 264.893 697.4 269.871 697.4H311.934C316.911 697.4 320.947 701.435 320.947 706.413C320.947 711.391 316.911 715.427 311.934 715.427L311.933 715.434C307.129 715.632 303.296 719.588 303.296 724.44C303.296 729.292 307.129 733.248 311.933 733.446L311.934 733.453H380.285C385.263 733.453 389.298 737.489 389.298 742.467C389.298 747.445 385.263 751.48 380.285 751.48H365.262L365.262 751.488C360.459 751.685 356.625 755.641 356.625 760.493C356.625 765.345 360.459 769.302 365.262 769.499L365.262 769.507H372.774C377.751 769.507 381.787 773.542 381.787 778.52C381.787 783.498 377.751 787.533 372.774 787.533H361.507L361.506 787.541C356.703 787.738 352.869 791.695 352.869 796.547C352.869 801.398 356.703 805.355 361.506 805.552L361.507 805.56H360.005C364.983 805.56 369.018 809.595 369.018 814.573C369.018 819.551 364.983 823.587 360.005 823.587H344.982L344.982 823.594C340.179 823.791 336.345 827.748 336.345 832.6C336.345 837.452 340.179 841.409 344.982 841.606L344.982 841.613H341.978C346.956 841.613 350.991 845.649 350.991 850.627C350.991 855.605 346.956 859.64 341.978 859.64H314.938C309.96 859.64 305.925 855.605 305.925 850.627C305.925 845.649 309.96 841.613 314.938 841.613H311.934ZM379.533 823.587C384.511 823.587 388.547 827.622 388.547 832.6C388.547 837.578 384.511 841.613 379.533 841.613C374.556 841.613 370.52 837.578 370.52 832.6C370.52 827.622 374.556 823.587 379.533 823.587ZM375.027 706.413C375.027 701.435 370.991 697.4 366.014 697.4H355.498C350.52 697.4 346.485 701.435 346.485 706.413C346.485 711.391 350.52 715.427 355.498 715.427H366.014C370.991 715.427 375.027 711.391 375.027 706.413ZM297.662 670.36C297.662 665.382 293.627 661.346 288.649 661.346H270.622C265.645 661.346 261.609 665.382 261.609 670.36C261.609 675.338 265.645 679.373 270.622 679.373H288.649C293.627 679.373 297.662 675.338 297.662 670.36ZM317.191 661.346C322.169 661.346 326.205 665.382 326.205 670.36C326.205 675.338 322.169 679.373 317.191 679.373H314.938C309.96 679.373 305.925 675.338 305.925 670.36C305.925 665.382 309.96 661.346 314.938 661.346H317.191Z" fill="#4FCDF9"/>
</g>
<mask id="mask2_328_2571" style="mask-type:luminance" maskUnits="userSpaceOnUse" x="19" y="596" width="338" height="338">
<circle cx="188" cy="765" r="169" fill="white"/>
</mask>
<g mask="url(#mask2_328_2571)">
<path fill-rule="evenodd" clip-rule="evenodd" d="M384.04 580.227C384.04 575.249 380.005 571.213 375.027 571.213H257.853C252.875 571.213 248.84 575.249 248.84 580.227C248.84 585.205 252.875 589.24 257.853 589.24H375.027C380.005 589.24 384.04 585.205 384.04 580.227ZM249.591 634.307C249.591 629.329 245.556 625.294 240.578 625.294H150.444C145.467 625.294 141.431 621.258 141.431 616.28C141.431 611.302 145.467 607.267 150.444 607.267H187.249C192.227 607.267 196.262 603.232 196.262 598.254C196.262 593.276 192.227 589.24 187.249 589.24H175.231C170.253 589.24 166.218 585.205 166.218 580.227C166.218 575.249 170.253 571.214 175.231 571.214H221.8C226.778 571.214 230.813 575.249 230.813 580.227C230.813 585.205 226.778 589.24 221.8 589.24H223.302L223.303 589.248C218.499 589.445 214.664 593.401 214.664 598.254C214.664 603.106 218.499 607.063 223.303 607.259L223.302 607.267H343.48C348.458 607.267 352.493 611.302 352.493 616.28C352.493 621.258 348.458 625.294 343.48 625.294H292.404L292.404 625.301C287.6 625.499 283.767 629.455 283.767 634.307C283.767 639.159 287.6 643.115 292.404 643.313L292.404 643.32H294.658C299.636 643.32 303.671 647.356 303.671 652.334C303.671 657.312 299.636 661.347 294.658 661.347H237.573C232.595 661.347 228.56 657.312 228.56 652.334C228.56 647.356 232.595 643.32 237.573 643.32H240.578C245.556 643.32 249.591 639.285 249.591 634.307ZM329.209 679.374C334.187 679.374 338.222 683.409 338.222 688.387C338.222 693.365 334.187 697.4 329.209 697.4H282.64C277.662 697.4 273.627 693.365 273.627 688.387C273.627 683.409 277.662 679.374 282.64 679.374H329.209ZM354.746 652.333C354.746 647.356 350.711 643.32 345.733 643.32H330.711C325.733 643.32 321.698 647.356 321.698 652.333C321.698 657.311 325.733 661.347 330.711 661.347H345.733C350.711 661.347 354.746 657.311 354.746 652.333ZM201.52 643.32C206.498 643.32 210.533 647.356 210.533 652.333C210.533 657.311 206.498 661.347 201.52 661.347H186.498C181.52 661.347 177.484 657.311 177.484 652.333C177.484 647.356 181.52 643.32 186.498 643.32H201.52Z" fill="white"/>
</g>
<mask id="mask3_328_2571" style="mask-type:luminance" maskUnits="userSpaceOnUse" x="19" y="596" width="338" height="338">
<circle cx="188" cy="765" r="169" fill="white"/>
</mask>
<g mask="url(#mask3_328_2571)">
<rect opacity="0.0775757" x="188.363" y="577.222" width="188.141" height="375.556" fill="black"/>
</g>
</g>
<defs>
<clipPath id="clip0_328_2571">
<rect width="375" height="714" fill="white"/>
</clipPath>
</defs>
</svg>
