<svg width="1440" height="1024" viewBox="0 0 1440 1024" fill="none" xmlns="http://www.w3.org/2000/svg">
<g clip-path="url(#clip0_328_44)">
<circle cx="1337" cy="1081" r="750" fill="#545BFE"/>
<mask id="mask0_328_44" style="mask-type:luminance" maskUnits="userSpaceOnUse" x="587" y="331" width="1500" height="1500">
<circle cx="1337" cy="1081" r="750" fill="white"/>
</mask>
<g mask="url(#mask0_328_44)">
<path fill-rule="evenodd" clip-rule="evenodd" d="M1213.67 421C1213.67 398.909 1195.76 381 1173.67 381H490.333C468.241 381 450.333 398.909 450.333 421C450.333 443.091 468.241 461 490.333 461H650.333C672.424 461 690.333 478.909 690.333 501C690.333 523.091 672.424 541 650.333 541H630.333C608.241 541 590.333 558.909 590.333 581C590.333 603.091 608.241 621 630.333 621H616.999C639.091 621 656.999 638.909 656.999 661C656.999 683.091 639.091 701 616.999 701H583.666C561.575 701 543.666 718.909 543.666 741C543.666 763.091 561.575 781 583.666 781H980.333C1002.42 781 1020.33 763.091 1020.33 741C1020.33 718.909 1002.42 701 980.333 701H963.666L963.666 700.966C942.348 700.092 925.334 682.533 925.334 661C925.334 639.467 942.348 621.908 963.666 621.034L963.666 621H1193.67C1215.76 621 1233.67 603.091 1233.67 581C1233.67 558.909 1215.76 541 1193.67 541H1170.33V540.966C1149.01 540.092 1132 522.533 1132 501C1132 479.467 1149.01 461.908 1170.33 461.034V461H1173.67C1195.76 461 1213.67 443.091 1213.67 421ZM913.667 861C935.759 861 953.667 878.909 953.667 901C953.667 923.091 935.759 941 913.667 941C891.576 941 873.667 923.091 873.667 901C873.667 878.909 891.576 861 913.667 861ZM790.334 981C790.334 958.909 772.425 941 750.334 941H633.667C611.576 941 593.667 958.909 593.667 981C593.667 1003.09 611.576 1021 633.667 1021H750.334C772.425 1021 790.334 1003.09 790.334 981ZM1073.67 1461C1073.67 1483.09 1055.76 1501 1033.67 1501H1050.33C1028.24 1501 1010.33 1518.91 1010.33 1541C1010.33 1563.09 1028.24 1581 1050.33 1581H1147C1169.09 1581 1187 1563.09 1187 1541C1187 1518.91 1169.09 1501 1147 1501H1160.33V1500.97C1139.01 1500.09 1122 1482.53 1122 1461C1122 1439.47 1139.01 1421.91 1160.33 1421.03V1421H1250.33C1272.42 1421 1290.33 1403.09 1290.33 1381C1290.33 1358.91 1272.42 1341 1250.33 1341L1250.33 1340.97C1229.01 1340.09 1212 1322.53 1212 1301C1212 1279.47 1229.01 1261.91 1250.33 1261.03L1250.33 1261H1270.33C1292.42 1261 1310.33 1243.09 1310.33 1221C1310.33 1198.91 1292.42 1181 1270.33 1181H1100.33V1180.97C1079.01 1180.09 1062 1162.53 1062 1141C1062 1119.47 1079.01 1101.91 1100.33 1101.03V1101H1093.67C1115.76 1101 1133.67 1083.09 1133.67 1061C1133.67 1038.91 1115.76 1021 1093.67 1021H930.333C908.241 1021 890.333 1038.91 890.333 1061C890.333 1083.09 908.241 1101 930.333 1101C952.424 1101 970.333 1118.91 970.333 1141C970.333 1163.09 952.424 1181 930.333 1181C908.241 1181 890.333 1198.91 890.333 1221C890.333 1243.09 908.241 1261 930.333 1261H963.666C985.757 1261 1003.67 1278.91 1003.67 1301C1003.67 1323.09 985.757 1341 963.666 1341H970.333C948.241 1341 930.333 1358.91 930.333 1381C930.333 1403.09 948.241 1421 970.333 1421H1033.67C1055.76 1421 1073.67 1438.91 1073.67 1461Z" fill="#4FCDF9"/>
</g>
<mask id="mask1_328_44" style="mask-type:luminance" maskUnits="userSpaceOnUse" x="587" y="331" width="1500" height="1500">
<circle cx="1337" cy="1081" r="750" fill="white"/>
</mask>
<g mask="url(#mask1_328_44)">
<path fill-rule="evenodd" clip-rule="evenodd" d="M1610.33 501C1610.33 478.909 1592.42 461 1570.33 461H1170.33C1148.24 461 1130.33 443.091 1130.33 421C1130.33 398.909 1148.24 381 1170.33 381H1333.67C1355.76 381 1373.67 363.091 1373.67 341C1373.67 318.909 1355.76 301 1333.67 301H1280.33C1258.24 301 1240.33 283.091 1240.33 261C1240.33 238.909 1258.24 221 1280.33 221H1487C1509.09 221 1527 238.909 1527 261C1527 283.091 1509.09 301 1487 301H1493.67L1493.67 301.034C1472.35 301.907 1455.33 319.466 1455.33 341C1455.33 362.534 1472.35 380.093 1493.67 380.966L1493.67 381H2027C2049.09 381 2067 398.909 2067 421C2067 443.091 2049.09 461 2027 461H1800.33L1800.33 461.034C1779.01 461.91 1762 479.468 1762 501C1762 522.532 1779.01 540.09 1800.33 540.966L1800.33 541H1810.33C1832.42 541 1850.33 558.909 1850.33 581C1850.33 603.091 1832.42 621 1810.33 621H1557C1534.91 621 1517 603.091 1517 581C1517 558.909 1534.91 541 1557 541H1570.33C1592.42 541 1610.33 523.091 1610.33 501ZM1963.67 701C1985.76 701 2003.67 718.909 2003.67 741C2003.67 763.091 1985.76 781 1963.67 781H1757C1734.91 781 1717 763.091 1717 741C1717 718.909 1734.91 701 1757 701H1963.67ZM2077 581C2077 558.908 2059.09 541 2037 541H1970.33C1948.24 541 1930.33 558.908 1930.33 581C1930.33 603.091 1948.24 621 1970.33 621H2037C2059.09 621 2077 603.091 2077 581ZM1397 541C1419.09 541 1437 558.908 1437 581C1437 603.091 1419.09 621 1397 621H1330.33C1308.24 621 1290.33 603.091 1290.33 581C1290.33 558.908 1308.24 541 1330.33 541H1397ZM2207 261C2207 238.909 2189.09 221 2167 221H1647C1624.91 221 1607 238.909 1607 261C1607 283.091 1624.91 301 1647 301H2167C2189.09 301 2207 283.091 2207 261Z" fill="white"/>
</g>
<mask id="mask2_328_44" style="mask-type:luminance" maskUnits="userSpaceOnUse" x="587" y="331" width="1500" height="1500">
<circle cx="1337" cy="1081" r="750" fill="white"/>
</mask>
<g mask="url(#mask2_328_44)">
<rect opacity="0.0775757" x="1338.61" y="247.666" width="834.945" height="1666.67" fill="black"/>
</g>
<path d="M386.282 207.956C384.911 206.934 383.238 206.423 381.262 206.423C379.286 206.423 377.593 206.934 376.181 207.956C375.657 208.365 375.233 208.79 374.911 209.233C374.75 209.097 374.568 208.978 374.366 208.876C373.157 208.126 371.705 207.752 370.011 207.752C368.318 207.752 366.866 208.126 365.657 208.876C364.446 209.625 363.842 210.528 363.842 211.583C363.842 212.64 364.446 213.542 365.657 214.291C366.866 215.041 368.318 215.415 370.011 215.415C371.705 215.415 373.157 215.041 374.366 214.291C374.528 214.189 374.689 214.086 374.85 213.985C375.173 214.496 375.617 214.972 376.181 215.415C377.593 216.437 379.286 216.948 381.262 216.948C383.238 216.948 384.911 216.437 386.282 215.415C387.694 214.393 388.399 213.15 388.399 211.685C388.399 210.221 387.694 208.978 386.282 207.956ZM371.161 218.532C370.515 219.077 370.193 219.741 370.193 220.525C370.193 221.308 370.515 221.973 371.161 222.517C371.806 223.062 372.593 223.335 373.519 223.335C374.447 223.335 375.233 223.062 375.878 222.517C376.524 221.973 376.846 221.308 376.846 220.525C376.846 219.741 376.524 219.077 375.878 218.532C375.233 217.987 374.447 217.715 373.519 217.715C372.593 217.715 371.806 217.987 371.161 218.532ZM328.397 131.524C328.68 131.32 328.82 131.047 328.82 130.707C328.82 130.366 328.68 130.076 328.397 129.838C328.155 129.634 327.832 129.531 327.429 129.531C327.026 129.531 326.684 129.634 326.401 129.838C326.159 130.076 326.038 130.366 326.038 130.707C326.038 131.047 326.159 131.32 326.401 131.524C326.684 131.763 327.026 131.882 327.429 131.882C327.832 131.882 328.155 131.763 328.397 131.524ZM341.281 122.94C340.676 122.43 339.95 122.175 339.103 122.175C338.256 122.175 337.531 122.43 336.925 122.94C336.321 123.452 336.019 124.065 336.019 124.78C336.019 125.495 336.321 126.109 336.925 126.619C337.531 127.131 338.256 127.385 339.103 127.385C339.95 127.385 340.676 127.131 341.281 126.619C341.885 126.109 342.188 125.495 342.188 124.78C342.188 124.065 341.885 123.452 341.281 122.94ZM359.85 129.327C358.599 128.612 357.068 128.255 355.253 128.255C353.438 128.255 351.886 128.612 350.596 129.327C349.345 130.076 348.721 130.962 348.721 131.984C348.721 133.006 349.345 133.874 350.596 134.589C351.886 135.339 353.438 135.713 355.253 135.713C356.334 135.713 357.302 135.577 358.156 135.305C359.117 134.63 360.084 134.068 361.06 133.618C361.543 133.139 361.785 132.593 361.785 131.984C361.785 130.962 361.14 130.076 359.85 129.327ZM412.231 194.213C412.231 194.621 412.413 194.978 412.775 195.285C413.138 195.592 413.562 195.745 414.046 195.745C414.53 195.745 414.953 195.592 415.315 195.285C415.679 194.978 415.86 194.621 415.86 194.213C415.86 193.804 415.679 193.446 415.315 193.139C414.953 192.833 414.53 192.68 414.046 192.68C413.562 192.68 413.138 192.833 412.775 193.139C412.413 193.446 412.231 193.804 412.231 194.213ZM348.176 241.369C347.128 241.369 346.16 241.557 345.273 241.931C344.588 242.204 343.962 242.579 343.397 243.055C342.067 244.179 341.401 245.525 341.401 247.091C341.401 248.659 342.067 250.004 343.397 251.128C344.728 252.252 346.321 252.814 348.176 252.814C350.03 252.814 351.624 252.252 352.954 251.128C354.285 250.004 354.95 248.659 354.95 247.091C354.95 245.525 354.285 244.179 352.954 243.055C352.51 242.681 352.048 242.374 351.564 242.136C350.555 241.625 349.426 241.369 348.176 241.369Z" fill="#DDDBD9"/>
<path d="M412.775 195.286C412.413 194.979 412.231 194.621 412.231 194.213C412.231 193.804 412.413 193.447 412.775 193.14C413.138 192.833 413.562 192.68 414.046 192.68C414.53 192.68 414.953 192.833 415.315 193.14C415.679 193.447 415.86 193.804 415.86 194.213C415.86 194.621 415.679 194.979 415.315 195.286C414.953 195.593 414.53 195.745 414.046 195.745C413.562 195.745 413.138 195.593 412.775 195.286ZM410.538 162.485C410.738 161.962 410.899 161.451 411.02 160.953C411.169 161.571 411.31 162.183 411.445 162.792C411.165 162.633 410.862 162.531 410.538 162.485ZM390.214 147.261C388.359 142.662 385.314 141.708 381.081 144.4C379.065 146.204 377.37 146.204 376 144.4C372.37 141.538 371.766 138.133 374.185 134.181C369.366 132.146 364.991 131.959 361.06 133.618C360.084 134.069 359.117 134.631 358.156 135.305C357.571 135.751 356.987 136.244 356.402 136.787C355.636 139.307 353.519 140.091 350.052 139.137C354.568 147.652 355.596 153.443 353.136 156.508C347.047 159.37 344.325 162.468 344.97 165.806C345.132 167.85 343.6 169.588 340.373 171.017C330.373 146.903 318.699 142.782 305.352 158.653C292.247 188.354 304.848 206.833 343.156 214.087C346.14 212.793 348.62 209.319 350.596 203.665C354.104 203.971 356.14 201.808 356.705 197.176C355.253 191.216 353.217 186.703 350.596 183.638C347.571 180.81 348.237 178.511 352.592 176.74C354.285 175.684 354.285 173.691 352.592 170.762C352.43 167.901 354.386 166.011 358.458 165.09C362.128 166.011 365.516 164.018 368.621 159.113C368.983 163.132 372.794 166.709 380.053 169.843C381.464 168.617 382.573 169.247 383.379 171.733V175.565L389.427 182.462C394.71 183.484 397.17 182.36 396.807 179.09C393.581 177.216 390.375 173.81 387.19 168.872C384.407 163.218 385.677 161.004 391.001 162.23L403.158 173.163C406.493 175.795 409.597 175.641 412.473 172.703C412.511 176.212 412.248 179.89 411.686 183.739C409.186 200.565 402.513 214.224 391.666 224.714C380.818 235.171 368.115 240.944 353.56 242.034C352.874 242.068 352.209 242.103 351.564 242.136C352.048 242.375 352.51 242.681 352.954 243.056C354.285 244.18 354.95 245.525 354.95 247.092C354.95 248.659 354.285 250.004 352.954 251.128C351.624 252.252 350.03 252.814 348.176 252.814C346.321 252.814 344.728 252.252 343.397 251.128C342.067 250.004 341.401 248.659 341.401 247.092C341.401 245.525 342.067 244.18 343.397 243.056C343.963 242.579 344.588 242.205 345.273 241.932C333.74 240.808 322.732 235.614 312.247 226.35C299.223 214.836 291.016 193.174 287.629 161.361C285.21 168.481 284 176.11 284 184.25C284 203.665 290.896 220.218 304.687 233.911C318.517 247.637 335.212 254.5 354.769 254.5C374.326 254.5 391.001 247.637 404.791 233.911C418.622 220.218 425.538 203.665 425.538 184.25C425.538 164.836 418.622 148.265 404.791 134.539C395.556 125.343 385.012 119.246 373.157 116.248C382.834 123.742 392.29 132.648 401.525 142.969C404.831 146.664 407.391 150.769 409.206 155.282C407.026 153.676 404.849 153.607 402.674 155.077C401.626 154.431 400.718 154.26 399.952 154.567L390.214 147.261Z" fill="#DADEDD"/>
<path d="M339.103 122.175C339.951 122.175 340.676 122.43 341.281 122.94C341.885 123.452 342.188 124.065 342.188 124.78C342.188 125.495 341.885 126.109 341.281 126.619C340.676 127.131 339.951 127.386 339.103 127.386C338.256 127.386 337.531 127.131 336.925 126.619C336.321 126.109 336.019 125.495 336.019 124.78C336.019 124.065 336.321 123.452 336.925 122.94C337.531 122.43 338.256 122.175 339.103 122.175ZM328.82 130.707C328.82 131.048 328.68 131.32 328.397 131.524C328.155 131.763 327.832 131.882 327.429 131.882C327.027 131.882 326.684 131.763 326.401 131.524C326.159 131.32 326.039 131.048 326.039 130.707C326.039 130.366 326.159 130.076 326.401 129.838C326.684 129.634 327.027 129.532 327.429 129.532C327.832 129.532 328.155 129.634 328.397 129.838C328.68 130.076 328.82 130.366 328.82 130.707ZM370.193 220.525C370.193 219.742 370.516 219.077 371.161 218.532C371.806 217.987 372.593 217.715 373.52 217.715C374.447 217.715 375.233 217.987 375.878 218.532C376.524 219.077 376.846 219.742 376.846 220.525C376.846 221.308 376.524 221.973 375.878 222.517C375.233 223.062 374.447 223.335 373.52 223.335C372.593 223.335 371.806 223.062 371.161 222.517C370.516 221.973 370.193 221.308 370.193 220.525ZM381.262 206.423C383.238 206.423 384.912 206.935 386.282 207.956C387.694 208.978 388.399 210.221 388.399 211.686C388.399 213.15 387.694 214.393 386.282 215.415C384.912 216.437 383.238 216.948 381.262 216.948C379.286 216.948 377.593 216.437 376.181 215.415C375.617 214.972 375.173 214.496 374.85 213.986C374.689 214.086 374.528 214.189 374.366 214.291C373.157 215.041 371.705 215.415 370.012 215.415C368.318 215.415 366.866 215.041 365.657 214.291C364.447 213.542 363.842 212.64 363.842 211.583C363.842 210.528 364.447 209.625 365.657 208.876C366.866 208.126 368.318 207.752 370.012 207.752C371.705 207.752 373.157 208.126 374.366 208.876C374.568 208.978 374.75 209.097 374.912 209.233C375.233 208.79 375.657 208.365 376.181 207.956C377.593 206.935 379.286 206.423 381.262 206.423ZM355.253 128.255C357.068 128.255 358.6 128.612 359.85 129.327C361.14 130.076 361.785 130.962 361.785 131.984C361.785 132.593 361.544 133.139 361.06 133.618C364.992 131.959 369.367 132.145 374.185 134.181C371.766 138.132 372.37 141.538 376 144.4C377.371 146.204 379.065 146.204 381.081 144.4C385.314 141.708 388.359 142.662 390.214 147.26L399.953 154.566C400.718 154.259 401.626 154.43 402.674 155.077C404.849 153.607 407.027 153.675 409.206 155.281C407.392 150.768 404.831 146.664 401.525 142.969C392.29 132.648 382.835 123.742 373.157 116.248C371.584 115.839 370.012 115.498 368.439 115.226C364.044 114.409 359.488 114 354.769 114C335.212 114 318.518 120.846 304.687 134.539C296.662 142.509 290.976 151.45 287.63 161.361C291.017 193.173 299.223 214.836 312.247 226.349C322.732 235.613 333.74 240.808 345.273 241.932C346.16 241.557 347.128 241.369 348.176 241.369C349.426 241.369 350.556 241.625 351.564 242.136C352.209 242.102 352.874 242.067 353.56 242.034C368.116 240.943 380.818 235.171 391.666 224.714C402.513 214.224 409.186 200.565 411.686 183.738C412.248 179.89 412.511 176.211 412.473 172.703C409.597 175.641 406.493 175.795 403.158 173.163L391.001 162.23C385.677 161.004 384.408 163.218 387.19 168.871C390.376 173.81 393.581 177.216 396.808 179.09C397.17 182.359 394.71 183.483 389.427 182.462L383.379 175.565V171.733C382.573 169.247 381.464 168.616 380.053 169.842C372.794 166.709 368.983 163.132 368.621 159.113C365.516 164.018 362.128 166.011 358.458 165.09C354.387 166.011 352.43 167.9 352.592 170.762C354.285 173.691 354.285 175.684 352.592 176.739C348.237 178.511 347.572 180.81 350.596 183.638C353.217 186.703 355.253 191.215 356.705 197.176C356.14 201.808 354.104 203.971 350.596 203.665C348.62 209.319 346.14 212.793 343.156 214.086C304.848 206.832 292.247 188.354 305.352 158.653C318.699 142.781 330.373 146.903 340.373 171.017C343.6 169.588 345.132 167.85 344.971 165.806C344.325 162.468 347.047 159.369 353.136 156.508C355.596 153.442 354.568 147.651 350.052 139.137C353.519 140.09 355.636 139.307 356.402 136.787C356.988 136.244 357.572 135.75 358.156 135.305C357.302 135.577 356.334 135.713 355.253 135.713C353.438 135.713 351.886 135.339 350.596 134.589C349.345 133.874 348.721 133.006 348.721 131.984C348.721 130.962 349.345 130.076 350.596 129.327C351.886 128.612 353.438 128.255 355.253 128.255ZM411.021 160.953C410.9 161.45 410.738 161.962 410.538 162.485C410.862 162.53 411.165 162.633 411.445 162.792C411.311 162.183 411.169 161.571 411.021 160.953Z" fill="#F7F7F7"/>
</g>
<defs>
<clipPath id="clip0_328_44">
<rect width="1440" height="1024" fill="white"/>
</clipPath>
</defs>
</svg>
