<svg width="72" height="70" viewBox="0 0 72 70" fill="none" xmlns="http://www.w3.org/2000/svg">
<path d="M51.509 46.8106C50.8187 46.3017 49.976 46.0468 48.981 46.0468C47.9858 46.0468 47.1331 46.3017 46.422 46.8106C46.1582 47.0146 45.9446 47.2262 45.7828 47.447C45.7015 47.379 45.6096 47.3197 45.5081 47.2688C44.8992 46.8954 44.168 46.7088 43.3151 46.7088C42.4624 46.7088 41.7312 46.8954 41.1222 47.2688C40.5126 47.6423 40.2083 48.0919 40.2083 48.6179C40.2083 49.1442 40.5126 49.5938 41.1222 49.9669C41.7312 50.3404 42.4624 50.5269 43.3151 50.5269C44.168 50.5269 44.8992 50.3404 45.5081 49.9669C45.5895 49.916 45.6708 49.8649 45.7519 49.8146C45.9145 50.0689 46.1379 50.3063 46.422 50.5269C47.1331 51.036 47.9858 51.2907 48.981 51.2907C49.976 51.2907 50.8187 51.036 51.509 50.5269C52.2201 50.0178 52.5752 49.3985 52.5752 48.6688C52.5752 47.9391 52.2201 47.3197 51.509 46.8106ZM43.894 52.0797C43.569 52.3514 43.4066 52.6824 43.4066 53.0727C43.4066 53.463 43.569 53.794 43.894 54.0651C44.2188 54.3366 44.615 54.4726 45.0817 54.4726C45.549 54.4726 45.9446 54.3366 46.2696 54.0651C46.5946 53.794 46.757 53.463 46.757 53.0727C46.757 52.6824 46.5946 52.3514 46.2696 52.0797C45.9446 51.8082 45.549 51.6726 45.0817 51.6726C44.615 51.6726 44.2188 51.8082 43.894 52.0797ZM22.3583 8.73073C22.5006 8.62895 22.5711 8.4933 22.5711 8.3236C22.5711 8.15389 22.5006 8.00943 22.3583 7.89082C22.2361 7.78883 22.0737 7.73794 21.8709 7.73794C21.668 7.73794 21.4954 7.78883 21.3531 7.89082C21.231 8.00943 21.1704 8.15389 21.1704 8.3236C21.1704 8.4933 21.231 8.62895 21.3531 8.73073C21.4954 8.84954 21.668 8.90885 21.8709 8.90885C22.0737 8.90885 22.2361 8.84954 22.3583 8.73073ZM28.8464 4.45403C28.5417 4.19978 28.1765 4.07275 27.7496 4.07275C27.3231 4.07275 26.9579 4.19978 26.653 4.45403C26.3487 4.70889 26.1964 5.01465 26.1964 5.37068C26.1964 5.72692 26.3487 6.03268 26.653 6.28693C26.9579 6.54179 27.3231 6.66882 27.7496 6.66882C28.1765 6.66882 28.5417 6.54179 28.8464 6.28693C29.1507 6.03268 29.3032 5.72692 29.3032 5.37068C29.3032 5.01465 29.1507 4.70889 28.8464 4.45403ZM38.198 7.63595C37.5681 7.27972 36.7967 7.1018 35.8828 7.1018C34.9689 7.1018 34.1873 7.27972 33.5375 7.63595C32.9075 8.00943 32.5933 8.45083 32.5933 8.95974C32.5933 9.46885 32.9075 9.90163 33.5375 10.2579C34.1873 10.6313 34.9689 10.8179 35.8828 10.8179C36.427 10.8179 36.9145 10.7502 37.3447 10.6145C37.8288 10.2784 38.3158 9.99829 38.807 9.774C39.0507 9.53514 39.1723 9.26344 39.1723 8.95974C39.1723 8.45083 38.8474 8.00943 38.198 7.63595ZM64.5768 39.9635C64.5768 40.1669 64.6682 40.345 64.8508 40.4979C65.0335 40.6507 65.2469 40.7269 65.4907 40.7269C65.7344 40.7269 65.9474 40.6507 66.1299 40.4979C66.3133 40.345 66.4046 40.1669 66.4046 39.9635C66.4046 39.7597 66.3133 39.5816 66.1299 39.4287C65.9474 39.2759 65.7344 39.1997 65.4907 39.1997C65.2469 39.1997 65.0335 39.2759 64.8508 39.4287C64.6682 39.5816 64.5768 39.7597 64.5768 39.9635ZM32.3187 63.4578C31.791 63.4578 31.3035 63.5513 30.857 63.7379C30.5118 63.8739 30.197 64.0605 29.9122 64.2979C29.2422 64.8579 28.907 65.5281 28.907 66.3087C28.907 67.0895 29.2422 67.7597 29.9122 68.3197C30.5823 68.8797 31.3846 69.1598 32.3187 69.1598C33.2527 69.1598 34.0552 68.8797 34.7252 68.3197C35.3953 67.7597 35.7303 67.0895 35.7303 66.3087C35.7303 65.5281 35.3953 64.8579 34.7252 64.2979C34.5016 64.1113 34.2686 63.9585 34.0249 63.8397C33.5171 63.585 32.9484 63.4578 32.3187 63.4578Z" fill="#DDDBD9"/>
<path d="M64.8508 40.4981C64.6682 40.3453 64.5768 40.1671 64.5768 39.9638C64.5768 39.76 64.6682 39.5819 64.8508 39.429C65.0335 39.2761 65.2469 39.2 65.4907 39.2C65.7344 39.2 65.9474 39.2761 66.1299 39.429C66.3133 39.5819 66.4046 39.76 66.4046 39.9638C66.4046 40.1671 66.3133 40.3453 66.1299 40.4981C65.9474 40.651 65.7344 40.7271 65.4907 40.7271C65.2469 40.7271 65.0335 40.651 64.8508 40.4981ZM63.7241 24.1561C63.8249 23.8957 63.9062 23.6409 63.9672 23.393C64.042 23.7008 64.1132 24.0059 64.1808 24.309C64.04 24.2298 63.8875 24.1789 63.7241 24.1561ZM53.4891 16.5711C52.5551 14.28 51.0216 13.8047 48.8895 15.1457C47.8744 16.0448 47.0211 16.0448 46.3308 15.1457C44.503 13.7202 44.1987 12.0233 45.4169 10.0548C42.9903 9.04046 40.787 8.9475 38.807 9.77427C38.3158 9.99856 37.8288 10.2787 37.3447 10.6148C37.0503 10.8366 36.7562 11.0825 36.4615 11.3529C36.0755 12.6086 35.0093 12.9989 33.2635 12.5238C35.5376 16.7658 36.0554 19.651 34.8166 21.1782C31.7501 22.604 30.3795 24.1479 30.7045 25.8109C30.7858 26.8292 30.0142 27.6949 28.3893 28.4072C23.3533 16.393 17.4742 14.3395 10.7527 22.2471C4.15298 37.0447 10.499 46.2511 29.7906 49.8652C31.2934 49.2206 32.5423 47.4897 33.5375 44.6728C35.3041 44.8253 36.3294 43.7478 36.6139 41.44C35.8828 38.4703 34.8575 36.2221 33.5375 34.6949C32.0144 33.286 32.3496 32.1407 34.5426 31.2581C35.3953 30.7324 35.3953 29.7394 34.5426 28.28C34.4613 26.8544 35.4464 25.9129 37.4969 25.4543C39.3448 25.9129 41.0511 24.9201 42.6148 22.4763C42.7974 24.4787 44.7164 26.2607 48.3718 27.8219C49.0824 27.211 49.641 27.5252 50.0471 28.7638V30.6729L53.0929 34.109C55.7533 34.6182 56.992 34.0582 56.8095 32.429C55.1845 31.4955 53.5704 29.7987 51.9662 27.3381C50.5649 24.5214 51.2041 23.4182 53.8853 24.0291L60.0077 29.4763C61.6872 30.7874 63.2503 30.7108 64.6985 29.2471C64.7176 30.995 64.5853 32.8277 64.3023 34.7452C63.0433 43.1285 59.6827 49.9335 54.2202 55.1601C48.7574 60.3697 42.3603 63.2458 35.0301 63.789C34.6849 63.8059 34.3497 63.8233 34.0249 63.8399C34.2686 63.9587 34.5016 64.1116 34.7252 64.2981C35.3953 64.8581 35.7303 65.5284 35.7303 66.309C35.7303 67.0898 35.3953 67.76 34.7252 68.32C34.0552 68.88 33.2527 69.1601 32.3187 69.1601C31.3846 69.1601 30.5823 68.88 29.9122 68.32C29.2422 67.76 28.907 67.0898 28.907 66.309C28.907 65.5284 29.2422 64.8581 29.9122 64.2981C30.197 64.0607 30.5118 63.8742 30.857 63.7381C25.0488 63.1781 19.5052 60.5903 14.2249 55.9748C7.66607 50.2387 3.53341 39.4458 1.82779 23.5963C0.609195 27.1433 0 30.9446 0 35.0001C0 44.6728 3.47285 52.9201 10.4177 59.742C17.3829 66.5806 25.7901 70 35.6391 70C45.488 70 53.8853 66.5806 60.8301 59.742C67.7951 52.9201 71.2781 44.6728 71.2781 35.0001C71.2781 25.3273 67.7951 17.0716 60.8301 10.2329C56.1795 5.65107 50.8696 2.61361 44.8992 1.12012C49.7727 4.85364 54.5347 9.29101 59.1851 14.4329C60.8502 16.2738 62.1396 18.3188 63.0535 20.5673C61.9558 19.7672 60.8594 19.7329 59.7638 20.4653C59.2361 20.1433 58.7789 20.0582 58.3933 20.2111L53.4891 16.5711Z" fill="#DADEDD"/>
<path d="M27.7494 4.07293C28.1763 4.07293 28.5416 4.19995 28.8463 4.4542C29.1506 4.70907 29.303 5.01483 29.303 5.37086C29.303 5.7271 29.1506 6.03285 28.8463 6.2871C28.5416 6.54197 28.1763 6.66899 27.7494 6.66899C27.323 6.66899 26.9577 6.54197 26.6528 6.2871C26.3485 6.03285 26.1963 5.7271 26.1963 5.37086C26.1963 5.01483 26.3485 4.70907 26.6528 4.4542C26.9577 4.19995 27.323 4.07293 27.7494 4.07293ZM22.571 8.32377C22.571 8.49348 22.5004 8.62912 22.3582 8.7309C22.236 8.84972 22.0736 8.90902 21.8707 8.90902C21.6679 8.90902 21.4953 8.84972 21.353 8.7309C21.2308 8.62912 21.1703 8.49348 21.1703 8.32377C21.1703 8.15407 21.2308 8.0096 21.353 7.89099C21.4953 7.78901 21.6679 7.73812 21.8707 7.73812C22.0736 7.73812 22.236 7.78901 22.3582 7.89099C22.5004 8.0096 22.571 8.15407 22.571 8.32377ZM43.4064 53.0729C43.4064 52.6826 43.5688 52.3516 43.8938 52.0799C44.2187 51.8084 44.6148 51.6727 45.0815 51.6727C45.5489 51.6727 45.9444 51.8084 46.2694 52.0799C46.5945 52.3516 46.7569 52.6826 46.7569 53.0729C46.7569 53.4632 46.5945 53.7942 46.2694 54.0652C45.9444 54.3367 45.5489 54.4728 45.0815 54.4728C44.6148 54.4728 44.2187 54.3367 43.8938 54.0652C43.5688 53.7942 43.4064 53.4632 43.4064 53.0729ZM48.9808 46.047C49.9758 46.047 50.8186 46.3019 51.5089 46.8108C52.2199 47.3199 52.575 47.9392 52.575 48.6689C52.575 49.3986 52.2199 50.018 51.5089 50.5271C50.8186 51.0362 49.9758 51.2909 48.9808 51.2909C47.9856 51.2909 47.1329 51.0362 46.4219 50.5271C46.1377 50.3065 45.9143 50.0691 45.7517 49.8148C45.6706 49.8651 45.5893 49.9162 45.508 49.9671C44.899 50.3405 44.1678 50.5271 43.3149 50.5271C42.4622 50.5271 41.7311 50.3405 41.1221 49.9671C40.5125 49.594 40.2082 49.1444 40.2082 48.618C40.2082 48.0921 40.5125 47.6425 41.1221 47.269C41.7311 46.8955 42.4622 46.709 43.3149 46.709C44.1678 46.709 44.899 46.8955 45.508 47.269C45.6094 47.3199 45.7013 47.3792 45.7826 47.4471C45.9444 47.2263 46.158 47.0148 46.4219 46.8108C47.1329 46.3019 47.9856 46.047 48.9808 46.047ZM35.8826 7.10198C36.7965 7.10198 37.5679 7.27989 38.1979 7.63613C38.8473 8.0096 39.1721 8.451 39.1721 8.95991C39.1721 9.26362 39.0506 9.53531 38.8068 9.77417C40.7869 8.9474 42.9901 9.04035 45.4167 10.0547C44.1985 12.0232 44.5028 13.7201 46.3306 15.1456C47.0209 16.0447 47.8742 16.0447 48.8894 15.1456C51.0214 13.8046 52.5549 14.2799 53.4889 16.571L58.3932 20.211C58.7788 20.0581 59.2359 20.1432 59.7636 20.4652C60.8592 19.7328 61.9556 19.7671 63.0533 20.5672C62.1394 18.3187 60.8501 16.2737 59.1849 14.4328C54.5345 9.29091 49.7726 4.85353 44.899 1.12001C44.1067 0.916245 43.3149 0.74654 42.5228 0.610899C40.3096 0.20377 38.0151 0 35.6389 0C25.7899 0 17.3828 3.41094 10.4176 10.2328C6.37617 14.2037 3.51293 18.6582 1.82764 23.5962C3.53326 39.4457 7.66591 50.2386 14.2248 55.9747C19.5051 60.5902 25.0486 63.178 30.8568 63.738C31.3034 63.5515 31.7908 63.4579 32.3185 63.4579C32.9482 63.4579 33.517 63.5852 34.0248 63.8398C34.3496 63.8232 34.6848 63.8058 35.0299 63.7889C42.3602 63.2457 48.7572 60.3696 54.2201 55.16C59.6825 49.9334 63.0431 43.1284 64.3022 34.7451C64.5851 32.8276 64.7174 30.9949 64.6984 29.247C63.2502 30.7107 61.687 30.7873 60.0075 29.4762L53.8851 24.029C51.204 23.4181 50.5647 24.5213 51.966 27.338C53.5702 29.7986 55.1844 31.4954 56.8093 32.4289C56.9918 34.0581 55.7531 34.6181 53.0928 34.1089L50.047 30.6728V28.7637C49.6409 27.5251 49.0823 27.2109 48.3716 27.8218C44.7163 26.2606 42.7972 24.4786 42.6147 22.4762C41.0509 24.92 39.3447 25.9128 37.4968 25.4542C35.4462 25.9128 34.4612 26.8543 34.5425 28.2799C35.3952 29.7393 35.3952 30.7323 34.5425 31.258C32.3494 32.1406 32.0142 33.2859 33.5373 34.6948C34.8573 36.222 35.8826 38.4702 36.6138 41.4399C36.3292 43.7477 35.3039 44.8252 33.5373 44.6727C32.5421 47.4896 31.2932 49.2205 29.7905 49.8651C10.4989 46.251 4.15283 37.0446 10.7525 22.247C17.474 14.3394 23.3532 16.3929 28.3891 28.4071C30.0141 27.6948 30.7857 26.8291 30.7044 25.8108C30.3793 24.1478 31.75 22.6039 34.8165 21.1781C36.0552 19.6509 35.5375 16.7657 33.2633 12.5237C35.0092 12.9988 36.0753 12.6085 36.4613 11.3528C36.7561 11.0824 37.0502 10.8365 37.3445 10.6147C36.9143 10.7503 36.4269 10.8181 35.8826 10.8181C34.9687 10.8181 34.1872 10.6315 33.5373 10.258C32.9074 9.90181 32.5931 9.46903 32.5931 8.95991C32.5931 8.451 32.9074 8.0096 33.5373 7.63613C34.1872 7.27989 34.9687 7.10198 35.8826 7.10198ZM63.967 23.3929C63.906 23.6408 63.8247 23.8956 63.7239 24.156C63.8873 24.1788 64.0398 24.2297 64.1806 24.3089C64.113 24.0058 64.0419 23.7007 63.967 23.3929Z" fill="#F7F7F7"/>
</svg>
