<svg width="1717" height="1024" viewBox="0 0 1717 1024" fill="none" xmlns="http://www.w3.org/2000/svg">
<g clip-path="url(#clip0_334_53)">
<circle cx="1117.15" cy="1053.7" r="576.301" fill="#545BFE"/>
<mask id="mask0_334_53" style="mask-type:luminance" maskUnits="userSpaceOnUse" x="540" y="477" width="1154" height="1153">
<circle cx="1117.15" cy="1053.7" r="576.301" fill="white"/>
</mask>
<g mask="url(#mask0_334_53)">
<path fill-rule="evenodd" clip-rule="evenodd" d="M1022.38 546.554C1022.38 529.579 1008.62 515.818 991.648 515.818H466.574C449.599 515.818 435.838 529.579 435.838 546.554C435.838 563.529 449.599 577.29 466.574 577.29H589.518C606.493 577.29 620.254 591.051 620.254 608.026C620.254 625.002 606.493 638.763 589.518 638.763H574.15C557.175 638.763 543.414 652.524 543.414 669.499C543.414 686.474 557.175 700.235 574.15 700.235H563.905C580.88 700.235 594.641 713.996 594.641 730.971C594.641 747.946 580.88 761.707 563.905 761.707H538.292C521.317 761.707 507.556 775.468 507.556 792.443C507.556 809.418 521.317 823.179 538.292 823.179H843.091C860.066 823.179 873.827 809.418 873.827 792.443C873.827 775.468 860.066 761.707 843.091 761.707H830.284L830.284 761.68C813.903 761.009 800.829 747.516 800.829 730.971C800.829 714.425 813.903 700.933 830.284 700.261L830.284 700.235H1007.02C1023.99 700.235 1037.75 686.474 1037.75 669.499C1037.75 652.524 1023.99 638.763 1007.02 638.763H989.087L989.087 638.736C972.706 638.065 959.632 624.572 959.632 608.026C959.632 591.481 972.706 577.988 989.087 577.317L989.087 577.29H991.648C1008.62 577.29 1022.38 563.529 1022.38 546.554ZM791.865 884.651C808.84 884.651 822.601 898.412 822.601 915.387C822.601 932.362 808.84 946.123 791.865 946.123C774.89 946.123 761.129 932.362 761.129 915.387C761.129 898.412 774.89 884.651 791.865 884.651ZM697.095 976.859C697.095 959.884 683.334 946.123 666.359 946.123H576.713C559.738 946.123 545.977 959.884 545.977 976.859C545.977 993.834 559.738 1007.6 576.713 1007.6H666.359C683.334 1007.6 697.095 993.834 697.095 976.859ZM914.808 1345.69C914.808 1362.67 901.047 1376.43 884.072 1376.43H896.879C879.904 1376.43 866.143 1390.19 866.143 1407.16C866.143 1424.14 879.904 1437.9 896.879 1437.9H971.157C988.133 1437.9 1001.89 1424.14 1001.89 1407.16C1001.89 1390.19 988.133 1376.43 971.157 1376.43H981.403V1376.4C965.022 1375.73 951.948 1362.24 951.948 1345.69C951.948 1329.15 965.022 1315.65 981.403 1314.98V1314.96H1050.56C1067.53 1314.96 1081.29 1301.19 1081.29 1284.22C1081.29 1267.24 1067.53 1253.48 1050.56 1253.48L1050.56 1253.46C1034.18 1252.79 1021.1 1239.29 1021.1 1222.75C1021.1 1206.2 1034.18 1192.71 1050.56 1192.04L1050.56 1192.01H1065.93C1082.9 1192.01 1096.66 1178.25 1096.66 1161.28C1096.66 1144.3 1082.9 1130.54 1065.93 1130.54H935.299V1130.51C918.918 1129.84 905.844 1116.35 905.844 1099.8C905.844 1083.26 918.918 1069.77 935.299 1069.09V1069.07H930.176C947.151 1069.07 960.912 1055.31 960.912 1038.33C960.912 1021.36 947.151 1007.6 930.176 1007.6H804.671C787.696 1007.6 773.935 1021.36 773.935 1038.33C773.935 1055.31 787.696 1069.07 804.671 1069.07C821.646 1069.07 835.407 1082.83 835.407 1099.8C835.407 1116.78 821.646 1130.54 804.671 1130.54C787.696 1130.54 773.935 1144.3 773.935 1161.28C773.935 1178.25 787.696 1192.01 804.671 1192.01H830.284C847.259 1192.01 861.02 1205.77 861.02 1222.75C861.02 1239.72 847.259 1253.48 830.284 1253.48H835.407C818.432 1253.48 804.671 1267.24 804.671 1284.22C804.671 1301.19 818.432 1314.96 835.407 1314.96H884.072C901.047 1314.96 914.808 1328.72 914.808 1345.69Z" fill="#4FCDF9"/>
</g>
<mask id="mask1_334_53" style="mask-type:luminance" maskUnits="userSpaceOnUse" x="540" y="477" width="1154" height="1153">
<circle cx="1117.15" cy="1053.7" r="576.301" fill="white"/>
</mask>
<g mask="url(#mask1_334_53)">
<path fill-rule="evenodd" clip-rule="evenodd" d="M1621.74 608.026C1621.74 591.051 1607.98 577.29 1591 577.29H1529.53C1512.55 577.29 1498.79 591.051 1498.79 608.026C1498.79 625.001 1512.55 638.762 1529.53 638.762H1591C1607.98 638.762 1621.74 625.001 1621.74 608.026ZM2231.34 638.762C2248.31 638.762 2262.07 652.523 2262.07 669.498C2262.07 686.473 2248.31 700.234 2231.34 700.234H2213.41V700.261C2197.03 700.932 2183.95 714.425 2183.95 730.971C2183.95 747.516 2197.03 761.009 2213.41 761.68V761.707H2254.39C2271.36 761.707 2285.12 775.468 2285.12 792.443C2285.12 809.418 2271.36 823.179 2254.39 823.179H1808.72C1791.74 823.179 1777.98 809.418 1777.98 792.443C1777.98 775.468 1791.74 761.707 1808.72 761.707H1795.91C1812.88 761.707 1826.65 747.946 1826.65 730.971C1826.65 713.995 1812.88 700.234 1795.91 700.234H1690.89C1673.92 700.234 1660.16 686.473 1660.16 669.498C1660.16 652.523 1673.92 638.762 1690.89 638.762H2231.34ZM1539.78 1314.96C1556.75 1314.96 1570.51 1301.19 1570.51 1284.22C1570.51 1267.24 1556.75 1253.48 1539.78 1253.48C1522.8 1253.48 1509.04 1239.72 1509.04 1222.75C1509.04 1205.77 1522.8 1192.01 1539.78 1192.01H1532.09C1549.07 1192.01 1562.83 1178.25 1562.83 1161.28C1562.83 1144.3 1549.07 1130.54 1532.09 1130.54H1416.83C1399.86 1130.54 1386.1 1116.78 1386.1 1099.8C1386.1 1082.83 1399.86 1069.07 1416.83 1069.07C1433.81 1069.07 1447.57 1055.31 1447.57 1038.33C1447.57 1021.36 1433.81 1007.59 1416.83 1007.59H1329.75C1312.77 1007.59 1299.01 993.834 1299.01 976.859C1299.01 959.884 1312.77 946.123 1329.75 946.123H1396.34C1413.32 946.123 1427.08 932.362 1427.08 915.387C1427.08 898.412 1413.32 884.651 1396.34 884.651C1379.37 884.651 1365.61 870.89 1365.61 853.915C1365.61 836.94 1379.37 823.179 1396.34 823.179H1539.78C1556.75 823.179 1570.51 836.94 1570.51 853.915C1570.51 870.89 1556.75 884.651 1539.78 884.651L1539.77 884.677C1523.39 885.35 1510.32 898.842 1510.32 915.387C1510.32 931.932 1523.39 945.424 1539.77 946.097L1539.78 946.123H1772.86C1789.83 946.123 1803.59 959.884 1803.59 976.859C1803.59 993.834 1789.83 1007.59 1772.86 1007.59H1721.63L1721.63 1007.62C1705.25 1008.29 1692.18 1021.79 1692.18 1038.33C1692.18 1054.88 1705.25 1068.37 1721.63 1069.04L1721.63 1069.07H1747.24C1764.22 1069.07 1777.98 1082.83 1777.98 1099.8C1777.98 1116.78 1764.22 1130.54 1747.24 1130.54H1708.82L1708.82 1130.57C1692.44 1131.24 1679.37 1144.73 1679.37 1161.28C1679.37 1177.82 1692.44 1191.31 1708.82 1191.98L1708.82 1192.01H1703.7C1720.68 1192.01 1734.44 1205.77 1734.44 1222.75C1734.44 1239.72 1720.68 1253.48 1703.7 1253.48H1652.47L1652.47 1253.51C1636.09 1254.18 1623.02 1267.67 1623.02 1284.22C1623.02 1300.77 1636.09 1314.26 1652.47 1314.93L1652.47 1314.96H1642.23C1659.2 1314.96 1672.97 1328.72 1672.97 1345.69C1672.97 1362.67 1659.2 1376.43 1642.23 1376.43H1550.02C1533.05 1376.43 1519.29 1362.67 1519.29 1345.69C1519.29 1328.72 1533.05 1314.96 1550.02 1314.96H1539.78ZM1770.29 1253.48C1787.27 1253.48 1801.03 1267.24 1801.03 1284.22C1801.03 1301.19 1787.27 1314.96 1770.29 1314.96C1753.32 1314.96 1739.56 1301.19 1739.56 1284.22C1739.56 1267.24 1753.32 1253.48 1770.29 1253.48ZM1754.93 853.915C1754.93 836.94 1741.17 823.179 1724.19 823.179H1688.33C1671.36 823.179 1657.6 836.94 1657.6 853.915C1657.6 870.89 1671.36 884.651 1688.33 884.651H1724.19C1741.17 884.651 1754.93 870.89 1754.93 853.915ZM1491.11 730.971C1491.11 713.995 1477.35 700.234 1460.37 700.234H1398.9C1381.93 700.234 1368.17 713.995 1368.17 730.971C1368.17 747.946 1381.93 761.707 1398.9 761.707H1460.37C1477.35 761.707 1491.11 747.946 1491.11 730.971ZM1557.7 700.234C1574.68 700.234 1588.44 713.995 1588.44 730.971C1588.44 747.946 1574.68 761.707 1557.7 761.707H1550.02C1533.05 761.707 1519.28 747.946 1519.28 730.971C1519.28 713.995 1533.05 700.234 1550.02 700.234H1557.7Z" fill="#4FCDF9"/>
</g>
<mask id="mask2_334_53" style="mask-type:luminance" maskUnits="userSpaceOnUse" x="540" y="477" width="1154" height="1153">
<circle cx="1117.15" cy="1053.7" r="576.301" fill="white"/>
</mask>
<g mask="url(#mask2_334_53)">
<path fill-rule="evenodd" clip-rule="evenodd" d="M1327.18 608.027C1327.18 591.052 1313.42 577.291 1296.45 577.291H989.087C972.112 577.291 958.351 563.53 958.351 546.554C958.351 529.579 972.112 515.818 989.087 515.818H1114.59C1131.57 515.818 1145.33 502.057 1145.33 485.082C1145.33 468.107 1131.57 454.346 1114.59 454.346H1073.61C1056.64 454.346 1042.87 440.585 1042.87 423.61C1042.87 406.635 1056.64 392.874 1073.61 392.874H1232.41C1249.39 392.874 1263.15 406.635 1263.15 423.61C1263.15 440.585 1249.39 454.346 1232.41 454.346H1237.54L1237.54 454.373C1221.16 455.043 1208.08 468.536 1208.08 485.082C1208.08 501.629 1221.16 515.121 1237.54 515.792L1237.54 515.818H1647.35C1664.33 515.818 1678.09 529.579 1678.09 546.554C1678.09 563.53 1664.33 577.291 1647.35 577.291H1473.18L1473.18 577.317C1456.8 577.99 1443.72 591.482 1443.72 608.027C1443.72 624.572 1456.8 638.063 1473.18 638.736L1473.18 638.763H1480.86C1497.84 638.763 1511.6 652.524 1511.6 669.499C1511.6 686.474 1497.84 700.235 1480.86 700.235H1286.2C1269.23 700.235 1255.47 686.474 1255.47 669.499C1255.47 652.524 1269.23 638.763 1286.2 638.763H1296.45C1313.42 638.763 1327.18 625.002 1327.18 608.027ZM1598.69 761.707C1615.66 761.707 1629.42 775.468 1629.42 792.443C1629.42 809.418 1615.66 823.179 1598.69 823.179H1439.88C1422.91 823.179 1409.15 809.418 1409.15 792.443C1409.15 775.468 1422.91 761.707 1439.88 761.707H1598.69ZM1685.77 669.499C1685.77 652.524 1672.01 638.763 1655.03 638.763H1603.81C1586.83 638.763 1573.07 652.524 1573.07 669.499C1573.07 686.474 1586.83 700.235 1603.81 700.235H1655.03C1672.01 700.235 1685.77 686.474 1685.77 669.499ZM1163.26 638.763C1180.23 638.763 1193.99 652.524 1193.99 669.499C1193.99 686.474 1180.23 700.235 1163.26 700.235H1112.03C1095.06 700.235 1081.29 686.474 1081.29 669.499C1081.29 652.524 1095.06 638.763 1112.03 638.763H1163.26ZM1785.66 423.61C1785.66 406.635 1771.9 392.874 1754.93 392.874H1355.36C1338.38 392.874 1324.62 406.635 1324.62 423.61C1324.62 440.585 1338.38 454.346 1355.36 454.346H1754.93C1771.9 454.346 1785.66 440.585 1785.66 423.61Z" fill="white"/>
</g>
<mask id="mask3_334_53" style="mask-type:luminance" maskUnits="userSpaceOnUse" x="-236" y="419" width="1153" height="1153">
<circle cx="340.301" cy="995.301" r="576.301" fill="white"/>
</mask>
<g mask="url(#mask3_334_53)">
<rect opacity="0.0775757" x="801.043" y="354.966" width="641.573" height="1280.67" fill="black"/>
</g>
<path d="M460.588 207.956C458.953 206.934 456.958 206.423 454.602 206.423C452.246 206.423 450.227 206.934 448.543 207.956C447.919 208.365 447.413 208.79 447.03 209.233C446.837 209.097 446.62 208.978 446.38 208.876C444.938 208.126 443.207 207.752 441.187 207.752C439.168 207.752 437.437 208.126 435.995 208.876C434.552 209.625 433.831 210.528 433.831 211.583C433.831 212.64 434.552 213.542 435.995 214.291C437.437 215.041 439.168 215.415 441.187 215.415C443.207 215.415 444.938 215.041 446.38 214.291C446.572 214.189 446.765 214.086 446.957 213.985C447.342 214.496 447.871 214.972 448.543 215.415C450.227 216.437 452.246 216.948 454.602 216.948C456.958 216.948 458.953 216.437 460.588 215.415C462.271 214.393 463.112 213.15 463.112 211.685C463.112 210.221 462.271 208.978 460.588 207.956ZM442.558 218.532C441.788 219.077 441.404 219.741 441.404 220.525C441.404 221.308 441.788 221.973 442.558 222.517C443.327 223.062 444.265 223.335 445.37 223.335C446.476 223.335 447.413 223.062 448.183 222.517C448.952 221.973 449.337 221.308 449.337 220.525C449.337 219.741 448.952 219.077 448.183 218.532C447.413 217.987 446.476 217.715 445.37 217.715C444.265 217.715 443.327 217.987 442.558 218.532ZM391.568 131.524C391.905 131.32 392.072 131.047 392.072 130.707C392.072 130.366 391.905 130.076 391.568 129.838C391.279 129.634 390.894 129.531 390.414 129.531C389.934 129.531 389.525 129.634 389.188 129.838C388.899 130.076 388.755 130.366 388.755 130.707C388.755 131.047 388.899 131.32 389.188 131.524C389.525 131.763 389.934 131.882 390.414 131.882C390.894 131.882 391.279 131.763 391.568 131.524ZM406.93 122.94C406.208 122.43 405.344 122.175 404.333 122.175C403.323 122.175 402.458 122.43 401.736 122.94C401.016 123.452 400.656 124.065 400.656 124.78C400.656 125.495 401.016 126.109 401.736 126.619C402.458 127.131 403.323 127.385 404.333 127.385C405.344 127.385 406.208 127.131 406.93 126.619C407.65 126.109 408.011 125.495 408.011 124.78C408.011 124.065 407.65 123.452 406.93 122.94ZM429.072 129.327C427.58 128.612 425.754 128.255 423.59 128.255C421.426 128.255 419.575 128.612 418.037 129.327C416.545 130.076 415.801 130.962 415.801 131.984C415.801 133.006 416.545 133.874 418.037 134.589C419.575 135.339 421.426 135.713 423.59 135.713C424.878 135.713 426.033 135.577 427.051 135.305C428.197 134.63 429.35 134.068 430.513 133.618C431.09 133.139 431.378 132.593 431.378 131.984C431.378 130.962 430.609 130.076 429.072 129.327ZM491.528 194.213C491.528 194.621 491.745 194.978 492.177 195.285C492.61 195.592 493.115 195.745 493.692 195.745C494.269 195.745 494.773 195.592 495.206 195.285C495.64 194.978 495.856 194.621 495.856 194.213C495.856 193.804 495.64 193.446 495.206 193.139C494.773 192.833 494.269 192.68 493.692 192.68C493.115 192.68 492.61 192.833 492.177 193.139C491.745 193.446 491.528 193.804 491.528 194.213ZM415.151 241.369C413.902 241.369 412.748 241.557 411.69 241.931C410.873 242.204 410.128 242.579 409.453 243.055C407.867 244.179 407.073 245.525 407.073 247.091C407.073 248.659 407.867 250.004 409.453 251.128C411.04 252.252 412.94 252.814 415.151 252.814C417.363 252.814 419.263 252.252 420.849 251.128C422.436 250.004 423.229 248.659 423.229 247.091C423.229 245.525 422.436 244.179 420.849 243.055C420.319 242.681 419.768 242.374 419.191 242.136C417.989 241.625 416.642 241.369 415.151 241.369Z" fill="#DDDBD9"/>
<path d="M492.177 195.286C491.745 194.979 491.528 194.621 491.528 194.213C491.528 193.804 491.745 193.447 492.177 193.14C492.61 192.833 493.115 192.68 493.692 192.68C494.269 192.68 494.773 192.833 495.206 193.14C495.64 193.447 495.856 193.804 495.856 194.213C495.856 194.621 495.64 194.979 495.206 195.286C494.773 195.593 494.269 195.745 493.692 195.745C493.115 195.745 492.61 195.593 492.177 195.286ZM489.509 162.485C489.748 161.962 489.94 161.451 490.085 160.953C490.262 161.571 490.431 162.183 490.591 162.792C490.257 162.633 489.896 162.531 489.509 162.485ZM465.276 147.261C463.065 142.662 459.434 141.708 454.386 144.4C451.982 146.204 449.962 146.204 448.327 144.4C444 141.538 443.279 138.133 446.164 134.181C440.418 132.146 435.202 131.959 430.513 133.618C429.351 134.069 428.197 134.631 427.051 135.305C426.354 135.751 425.658 136.244 424.96 136.787C424.046 139.307 421.522 140.091 417.388 139.137C422.773 147.652 423.998 153.443 421.066 156.508C413.805 159.37 410.56 162.468 411.329 165.806C411.522 167.85 409.695 169.588 405.848 171.017C393.924 146.903 380.004 142.782 364.09 158.653C348.464 188.354 363.489 206.833 409.166 214.087C412.724 212.793 415.681 209.319 418.037 203.665C422.22 203.971 424.647 201.808 425.321 197.176C423.59 191.216 421.162 186.703 418.037 183.638C414.431 180.81 415.224 178.511 420.417 176.74C422.436 175.684 422.436 173.691 420.417 170.762C420.224 167.901 422.557 166.011 427.412 165.09C431.787 166.011 435.827 164.018 439.529 159.113C439.961 163.132 444.505 166.709 453.16 169.843C454.842 168.617 456.165 169.247 457.127 171.733V175.565L464.338 182.462C470.637 183.484 473.57 182.36 473.138 179.09C469.29 177.216 465.469 173.81 461.67 168.872C458.352 163.218 459.866 161.004 466.214 162.23L480.71 173.163C484.687 175.795 488.388 175.641 491.817 172.703C491.862 176.212 491.548 179.89 490.878 183.739C487.897 200.565 479.941 214.224 467.007 224.714C454.073 235.171 438.927 240.944 421.571 242.034C420.754 242.068 419.96 242.103 419.191 242.136C419.768 242.375 420.32 242.681 420.849 243.056C422.436 244.18 423.229 245.525 423.229 247.092C423.229 248.659 422.436 250.004 420.849 251.128C419.263 252.252 417.363 252.814 415.151 252.814C412.94 252.814 411.04 252.252 409.453 251.128C407.867 250.004 407.073 248.659 407.073 247.092C407.073 245.525 407.867 244.18 409.453 243.056C410.128 242.579 410.873 242.205 411.69 241.932C397.938 240.808 384.813 235.614 372.311 226.35C356.781 214.836 346.997 193.174 342.958 161.361C340.073 168.481 338.631 176.11 338.631 184.25C338.631 203.665 346.853 220.218 363.297 233.911C379.788 247.637 399.694 254.5 423.013 254.5C446.332 254.5 466.214 247.637 482.657 233.911C499.148 220.218 507.395 203.665 507.395 184.25C507.395 164.836 499.148 148.265 482.657 134.539C471.646 125.343 459.074 119.246 444.938 116.248C456.477 123.742 467.752 132.648 478.762 142.969C482.705 146.664 485.758 150.769 487.922 155.282C485.323 153.676 482.727 153.607 480.133 155.077C478.883 154.431 477.801 154.26 476.888 154.567L465.276 147.261Z" fill="#DADEDD"/>
<path d="M404.333 122.175C405.344 122.175 406.209 122.43 406.93 122.94C407.651 123.452 408.012 124.065 408.012 124.78C408.012 125.495 407.651 126.109 406.93 126.619C406.209 127.131 405.344 127.386 404.333 127.386C403.323 127.386 402.459 127.131 401.737 126.619C401.016 126.109 400.656 125.495 400.656 124.78C400.656 124.065 401.016 123.452 401.737 122.94C402.459 122.43 403.323 122.175 404.333 122.175ZM392.072 130.707C392.072 131.048 391.905 131.32 391.568 131.524C391.279 131.763 390.894 131.882 390.414 131.882C389.934 131.882 389.525 131.763 389.188 131.524C388.899 131.32 388.756 131.048 388.756 130.707C388.756 130.366 388.899 130.076 389.188 129.838C389.525 129.634 389.934 129.532 390.414 129.532C390.894 129.532 391.279 129.634 391.568 129.838C391.905 130.076 392.072 130.366 392.072 130.707ZM441.404 220.525C441.404 219.742 441.788 219.077 442.558 218.532C443.327 217.987 444.265 217.715 445.37 217.715C446.477 217.715 447.413 217.987 448.183 218.532C448.952 219.077 449.337 219.742 449.337 220.525C449.337 221.308 448.952 221.973 448.183 222.517C447.413 223.062 446.477 223.335 445.37 223.335C444.265 223.335 443.327 223.062 442.558 222.517C441.788 221.973 441.404 221.308 441.404 220.525ZM454.602 206.423C456.958 206.423 458.954 206.935 460.588 207.956C462.272 208.978 463.112 210.221 463.112 211.686C463.112 213.15 462.272 214.393 460.588 215.415C458.954 216.437 456.958 216.948 454.602 216.948C452.246 216.948 450.227 216.437 448.544 215.415C447.871 214.972 447.342 214.496 446.957 213.986C446.765 214.086 446.572 214.189 446.38 214.291C444.938 215.041 443.207 215.415 441.187 215.415C439.168 215.415 437.437 215.041 435.995 214.291C434.552 213.542 433.832 212.64 433.832 211.583C433.832 210.528 434.552 209.625 435.995 208.876C437.437 208.126 439.168 207.752 441.187 207.752C443.207 207.752 444.938 208.126 446.38 208.876C446.62 208.978 446.838 209.097 447.03 209.233C447.413 208.79 447.919 208.365 448.544 207.956C450.227 206.935 452.246 206.423 454.602 206.423ZM423.59 128.255C425.754 128.255 427.58 128.612 429.072 129.327C430.609 130.076 431.378 130.962 431.378 131.984C431.378 132.593 431.091 133.139 430.514 133.618C435.202 131.959 440.418 132.145 446.164 134.181C443.279 138.132 444 141.538 448.328 144.4C449.962 146.204 451.982 146.204 454.386 144.4C459.434 141.708 463.065 142.662 465.276 147.26L476.888 154.566C477.801 154.259 478.883 154.43 480.133 155.077C482.727 153.607 485.323 153.675 487.922 155.281C485.758 150.768 482.705 146.664 478.763 142.969C467.752 132.648 456.477 123.742 444.938 116.248C443.062 115.839 441.187 115.498 439.312 115.226C434.072 114.409 428.639 114 423.013 114C399.694 114 379.788 120.846 363.297 134.539C353.728 142.509 346.949 151.45 342.958 161.361C346.997 193.173 356.782 214.836 372.311 226.349C384.813 235.613 397.938 240.808 411.69 241.932C412.748 241.557 413.902 241.369 415.151 241.369C416.642 241.369 417.989 241.625 419.191 242.136C419.96 242.102 420.754 242.067 421.571 242.034C438.927 240.943 454.073 235.171 467.007 224.714C479.941 214.224 487.898 200.565 490.879 183.738C491.548 179.89 491.862 176.211 491.817 172.703C488.388 175.641 484.687 175.795 480.71 173.163L466.214 162.23C459.866 161.004 458.353 163.218 461.67 168.871C465.469 173.81 469.291 177.216 473.138 179.09C473.57 182.359 470.637 183.483 464.338 182.462L457.127 175.565V171.733C456.165 169.247 454.843 168.616 453.16 169.842C444.505 166.709 439.962 163.132 439.529 159.113C435.827 164.018 431.787 166.011 427.412 165.09C422.557 166.011 420.224 167.9 420.417 170.762C422.436 173.691 422.436 175.684 420.417 176.739C415.224 178.511 414.431 180.81 418.037 183.638C421.162 186.703 423.59 191.215 425.321 197.176C424.647 201.808 422.22 203.971 418.037 203.665C415.681 209.319 412.724 212.793 409.166 214.086C363.489 206.832 348.464 188.354 364.09 158.653C380.004 142.781 393.924 146.903 405.848 171.017C409.695 169.588 411.522 167.85 411.329 165.806C410.56 162.468 413.805 159.369 421.066 156.508C423.999 153.442 422.773 147.651 417.388 139.137C421.522 140.09 424.046 139.307 424.96 136.787C425.658 136.244 426.354 135.75 427.051 135.305C426.033 135.577 424.879 135.713 423.59 135.713C421.426 135.713 419.576 135.339 418.037 134.589C416.546 133.874 415.801 133.006 415.801 131.984C415.801 130.962 416.546 130.076 418.037 129.327C419.576 128.612 421.426 128.255 423.59 128.255ZM490.085 160.953C489.941 161.45 489.748 161.962 489.509 162.485C489.896 162.53 490.257 162.633 490.591 162.792C490.431 162.183 490.262 161.571 490.085 160.953Z" fill="#F7F7F7"/>
<path d="M460.588 206.953C458.953 205.942 456.958 205.436 454.602 205.436C452.246 205.436 450.227 205.942 448.543 206.953C447.919 207.358 447.413 207.778 447.03 208.216C446.837 208.081 446.62 207.964 446.38 207.862C444.938 207.121 443.207 206.75 441.187 206.75C439.168 206.75 437.437 207.121 435.995 207.862C434.552 208.604 433.831 209.497 433.831 210.541C433.831 211.586 434.552 212.479 435.995 213.22C437.437 213.962 439.168 214.332 441.187 214.332C443.207 214.332 444.938 213.962 446.38 213.22C446.572 213.119 446.765 213.018 446.957 212.918C447.342 213.423 447.871 213.894 448.543 214.332C450.227 215.343 452.246 215.849 454.602 215.849C456.958 215.849 458.953 215.343 460.588 214.332C462.271 213.321 463.112 212.091 463.112 210.642C463.112 209.193 462.271 207.964 460.588 206.953ZM442.558 217.415C441.788 217.955 441.404 218.612 441.404 219.387C441.404 220.162 441.788 220.82 442.558 221.358C443.327 221.897 444.265 222.167 445.37 222.167C446.476 222.167 447.413 221.897 448.183 221.358C448.952 220.82 449.337 220.162 449.337 219.387C449.337 218.612 448.952 217.955 448.183 217.415C447.413 216.876 446.476 216.607 445.37 216.607C444.265 216.607 443.327 216.876 442.558 217.415ZM391.568 131.337C391.905 131.135 392.072 130.865 392.072 130.528C392.072 130.191 391.905 129.905 391.568 129.669C391.279 129.466 390.894 129.365 390.414 129.365C389.934 129.365 389.525 129.466 389.188 129.669C388.899 129.905 388.755 130.191 388.755 130.528C388.755 130.865 388.899 131.135 389.188 131.337C389.525 131.573 389.934 131.69 390.414 131.69C390.894 131.69 391.279 131.573 391.568 131.337ZM406.93 122.845C406.208 122.34 405.344 122.087 404.333 122.087C403.323 122.087 402.458 122.34 401.736 122.845C401.016 123.351 400.656 123.958 400.656 124.665C400.656 125.372 401.016 125.979 401.736 126.484C402.458 126.99 403.323 127.242 404.333 127.242C405.344 127.242 406.208 126.99 406.93 126.484C407.65 125.979 408.011 125.372 408.011 124.665C408.011 123.958 407.65 123.351 406.93 122.845ZM429.072 129.163C427.58 128.456 425.754 128.102 423.59 128.102C421.426 128.102 419.575 128.456 418.037 129.163C416.545 129.905 415.801 130.781 415.801 131.792C415.801 132.803 416.545 133.662 418.037 134.369C419.575 135.111 421.426 135.481 423.59 135.481C424.878 135.481 426.033 135.347 427.051 135.077C428.197 134.41 429.35 133.854 430.513 133.408C431.09 132.934 431.378 132.395 431.378 131.792C431.378 130.781 430.609 129.905 429.072 129.163ZM491.528 193.356C491.528 193.76 491.745 194.114 492.177 194.417C492.61 194.721 493.115 194.872 493.692 194.872C494.269 194.872 494.773 194.721 495.206 194.417C495.64 194.114 495.856 193.76 495.856 193.356C495.856 192.952 495.64 192.598 495.206 192.294C494.773 191.991 494.269 191.84 493.692 191.84C493.115 191.84 492.61 191.991 492.177 192.294C491.745 192.598 491.528 192.952 491.528 193.356ZM415.151 240.009C413.902 240.009 412.748 240.195 411.69 240.565C410.873 240.835 410.128 241.206 409.453 241.677C407.867 242.789 407.073 244.12 407.073 245.67C407.073 247.221 407.867 248.551 409.453 249.663C411.04 250.776 412.94 251.332 415.151 251.332C417.363 251.332 419.263 250.776 420.849 249.663C422.436 248.551 423.229 247.221 423.229 245.67C423.229 244.12 422.436 242.789 420.849 241.677C420.319 241.307 419.768 241.003 419.191 240.767C417.989 240.262 416.642 240.009 415.151 240.009Z" fill="#DDDBD9"/>
<path d="M492.177 194.418C491.745 194.114 491.528 193.761 491.528 193.357C491.528 192.952 491.745 192.598 492.177 192.295C492.61 191.991 493.115 191.84 493.692 191.84C494.269 191.84 494.773 191.991 495.206 192.295C495.64 192.598 495.856 192.952 495.856 193.357C495.856 193.761 495.64 194.114 495.206 194.418C494.773 194.721 494.269 194.873 493.692 194.873C493.115 194.873 492.61 194.721 492.177 194.418ZM489.509 161.967C489.748 161.45 489.94 160.944 490.085 160.452C490.262 161.063 490.431 161.669 490.591 162.271C490.257 162.114 489.896 162.013 489.509 161.967ZM465.276 146.906C463.065 142.356 459.434 141.412 454.386 144.075C451.982 145.86 449.962 145.86 448.327 144.075C444 141.244 443.279 137.875 446.164 133.966C440.418 131.952 435.202 131.767 430.513 133.409C429.351 133.854 428.197 134.411 427.051 135.078C426.354 135.519 425.658 136.007 424.96 136.544C424.046 139.037 421.522 139.812 417.388 138.869C422.773 147.292 423.998 153.021 421.066 156.054C413.805 158.885 410.56 161.951 411.329 165.253C411.522 167.275 409.695 168.994 405.848 170.409C393.924 146.552 380.004 142.474 364.09 158.177C348.464 187.56 363.489 205.842 409.166 213.018C412.724 211.738 415.681 208.301 418.037 202.708C422.22 203.01 424.647 200.871 425.321 196.288C423.59 190.391 421.162 185.927 418.037 182.894C414.431 180.097 415.224 177.822 420.417 176.07C422.436 175.026 422.436 173.054 420.417 170.156C420.224 167.325 422.557 165.456 427.412 164.545C431.787 165.456 435.827 163.484 439.529 158.632C439.961 162.608 444.505 166.146 453.16 169.247C454.842 168.033 456.165 168.657 457.127 171.117V174.908L464.338 181.731C470.637 182.742 473.57 181.63 473.138 178.395C469.29 176.541 465.469 173.172 461.67 168.286C458.352 162.693 459.866 160.502 466.214 161.715L480.71 172.532C484.687 175.135 488.388 174.983 491.817 172.077C491.862 175.547 491.548 179.187 490.878 182.994C487.897 199.641 479.941 213.154 467.007 223.532C454.073 233.877 438.927 239.588 421.571 240.667C420.754 240.7 419.96 240.735 419.191 240.768C419.768 241.004 420.32 241.307 420.849 241.678C422.436 242.79 423.229 244.121 423.229 245.671C423.229 247.221 422.436 248.552 420.849 249.664C419.263 250.776 417.363 251.332 415.151 251.332C412.94 251.332 411.04 250.776 409.453 249.664C407.867 248.552 407.073 247.221 407.073 245.671C407.073 244.121 407.867 242.79 409.453 241.678C410.128 241.206 410.873 240.836 411.69 240.566C397.938 239.454 384.813 234.315 372.311 225.15C356.781 213.76 346.997 192.328 342.958 160.856C340.073 167.899 338.631 175.447 338.631 183.5C338.631 202.708 346.853 219.084 363.297 232.631C379.788 246.21 399.694 253 423.013 253C446.332 253 466.214 246.21 482.657 232.631C499.148 219.084 507.395 202.708 507.395 183.5C507.395 164.293 499.148 147.899 482.657 134.32C471.646 125.222 459.074 119.19 444.938 116.224C456.477 123.638 467.752 132.449 478.762 142.66C482.705 146.315 485.758 150.376 487.922 154.841C485.323 153.252 482.727 153.184 480.133 154.638C478.883 153.999 477.801 153.83 476.888 154.134L465.276 146.906Z" fill="#DADEDD"/>
<path d="M404.333 122.088C405.344 122.088 406.209 122.34 406.93 122.845C407.651 123.351 408.012 123.958 408.012 124.665C408.012 125.372 407.651 125.98 406.93 126.484C406.209 126.99 405.344 127.243 404.333 127.243C403.323 127.243 402.459 126.99 401.737 126.484C401.016 125.98 400.656 125.372 400.656 124.665C400.656 123.958 401.016 123.351 401.737 122.845C402.459 122.34 403.323 122.088 404.333 122.088ZM392.072 130.529C392.072 130.866 391.905 131.135 391.568 131.337C391.279 131.573 390.894 131.691 390.414 131.691C389.934 131.691 389.525 131.573 389.188 131.337C388.899 131.135 388.756 130.866 388.756 130.529C388.756 130.192 388.899 129.905 389.188 129.669C389.525 129.467 389.934 129.366 390.414 129.366C390.894 129.366 391.279 129.467 391.568 129.669C391.905 129.905 392.072 130.192 392.072 130.529ZM441.404 219.388C441.404 218.612 441.788 217.955 442.558 217.416C443.327 216.877 444.265 216.607 445.37 216.607C446.477 216.607 447.413 216.877 448.183 217.416C448.952 217.955 449.337 218.612 449.337 219.388C449.337 220.163 448.952 220.82 448.183 221.358C447.413 221.897 446.477 222.167 445.37 222.167C444.265 222.167 443.327 221.897 442.558 221.358C441.788 220.82 441.404 220.163 441.404 219.388ZM454.602 205.436C456.958 205.436 458.954 205.942 460.588 206.953C462.272 207.964 463.112 209.194 463.112 210.643C463.112 212.092 462.272 213.321 460.588 214.332C458.954 215.343 456.958 215.849 454.602 215.849C452.246 215.849 450.227 215.343 448.544 214.332C447.871 213.894 447.342 213.423 446.957 212.918C446.765 213.018 446.572 213.119 446.38 213.22C444.938 213.962 443.207 214.332 441.187 214.332C439.168 214.332 437.437 213.962 435.995 213.22C434.552 212.479 433.832 211.587 433.832 210.542C433.832 209.497 434.552 208.604 435.995 207.863C437.437 207.121 439.168 206.751 441.187 206.751C443.207 206.751 444.938 207.121 446.38 207.863C446.62 207.964 446.838 208.082 447.03 208.216C447.413 207.778 447.919 207.358 448.544 206.953C450.227 205.942 452.246 205.436 454.602 205.436ZM423.59 128.102C425.754 128.102 427.58 128.456 429.072 129.163C430.609 129.905 431.378 130.781 431.378 131.792C431.378 132.395 431.091 132.934 430.514 133.409C435.202 131.767 440.418 131.952 446.164 133.966C443.279 137.875 444 141.244 448.328 144.075C449.962 145.86 451.982 145.86 454.386 144.075C459.434 141.412 463.065 142.356 465.276 146.905L476.888 154.133C477.801 153.83 478.883 153.999 480.133 154.638C482.727 153.184 485.323 153.252 487.922 154.841C485.758 150.376 482.705 146.315 478.763 142.659C467.752 132.449 456.477 123.638 444.938 116.224C443.062 115.819 441.187 115.482 439.312 115.213C434.072 114.405 428.639 114 423.013 114C399.694 114 379.788 120.773 363.297 134.319C353.728 142.205 346.949 151.05 342.958 160.855C346.997 192.328 356.782 213.759 372.311 225.15C384.813 234.315 397.938 239.453 411.69 240.566C412.748 240.195 413.902 240.009 415.151 240.009C416.642 240.009 417.989 240.262 419.191 240.768C419.96 240.735 420.754 240.7 421.571 240.667C438.927 239.588 454.073 233.877 467.007 223.532C479.941 213.153 487.898 199.641 490.879 182.994C491.548 179.186 491.862 175.547 491.817 172.076C488.388 174.983 484.687 175.135 480.71 172.531L466.214 161.715C459.866 160.502 458.353 162.692 461.67 168.285C465.469 173.171 469.291 176.541 473.138 178.395C473.57 181.63 470.637 182.742 464.338 181.731L457.127 174.907V171.117C456.165 168.657 454.843 168.033 453.16 169.246C444.505 166.146 439.962 162.608 439.529 158.631C435.827 163.484 431.787 165.455 427.412 164.545C422.557 165.455 420.224 167.325 420.417 170.156C422.436 173.054 422.436 175.026 420.417 176.069C415.224 177.822 414.431 180.096 418.037 182.894C421.162 185.926 423.59 190.391 425.321 196.288C424.647 200.87 422.22 203.01 418.037 202.707C415.681 208.301 412.724 211.738 409.166 213.018C363.489 205.841 348.464 187.56 364.09 158.176C380.004 142.474 393.924 146.552 405.848 170.408C409.695 168.994 411.522 167.275 411.329 165.253C410.56 161.951 413.805 158.885 421.066 156.054C423.999 153.021 422.773 147.292 417.388 138.869C421.522 139.812 424.046 139.037 424.96 136.543C425.658 136.006 426.354 135.518 427.051 135.078C426.033 135.347 424.879 135.482 423.59 135.482C421.426 135.482 419.576 135.111 418.037 134.37C416.546 133.662 415.801 132.803 415.801 131.792C415.801 130.781 416.546 129.905 418.037 129.163C419.576 128.456 421.426 128.102 423.59 128.102ZM490.085 160.452C489.941 160.944 489.748 161.45 489.509 161.967C489.896 162.012 490.257 162.113 490.591 162.271C490.431 161.669 490.262 161.063 490.085 160.452Z" fill="#F7F7F7"/>
</g>
<defs>
<clipPath id="clip0_334_53">
<rect width="1717" height="1024" fill="white"/>
</clipPath>
</defs>
</svg>
