<svg width="1717" height="1024" viewBox="0 0 1717 1024" fill="none" xmlns="http://www.w3.org/2000/svg">
<g clip-path="url(#clip0_334_53)">
<circle cx="1096.15" cy="1053.7" r="576.301" fill="#545BFE"/>
<mask id="mask0_334_53" style="mask-type:luminance" maskUnits="userSpaceOnUse" x="519" y="477" width="1154" height="1153">
<circle cx="1096.15" cy="1053.7" r="576.301" fill="white"/>
</mask>
<g mask="url(#mask0_334_53)">
<path fill-rule="evenodd" clip-rule="evenodd" d="M1001.38 546.554C1001.38 529.579 987.623 515.818 970.648 515.818H445.574C428.599 515.818 414.838 529.579 414.838 546.554C414.838 563.529 428.599 577.29 445.574 577.29H568.518C585.493 577.29 599.254 591.051 599.254 608.026C599.254 625.002 585.493 638.763 568.518 638.763H553.15C536.175 638.763 522.414 652.524 522.414 669.499C522.414 686.474 536.175 700.235 553.15 700.235H542.905C559.88 700.235 573.641 713.996 573.641 730.971C573.641 747.946 559.88 761.707 542.905 761.707H517.292C500.317 761.707 486.556 775.468 486.556 792.443C486.556 809.418 500.317 823.179 517.292 823.179H822.091C839.066 823.179 852.827 809.418 852.827 792.443C852.827 775.468 839.066 761.707 822.091 761.707H809.284L809.284 761.68C792.903 761.009 779.829 747.516 779.829 730.971C779.829 714.425 792.903 700.933 809.284 700.261L809.284 700.235H986.016C1002.99 700.235 1016.75 686.474 1016.75 669.499C1016.75 652.524 1002.99 638.763 986.016 638.763H968.087L968.087 638.736C951.706 638.065 938.632 624.572 938.632 608.026C938.632 591.481 951.706 577.988 968.087 577.317L968.087 577.29H970.648C987.623 577.29 1001.38 563.529 1001.38 546.554ZM770.865 884.651C787.84 884.651 801.601 898.412 801.601 915.387C801.601 932.362 787.84 946.123 770.865 946.123C753.89 946.123 740.129 932.362 740.129 915.387C740.129 898.412 753.89 884.651 770.865 884.651ZM676.095 976.859C676.095 959.884 662.334 946.123 645.359 946.123H555.713C538.738 946.123 524.977 959.884 524.977 976.859C524.977 993.834 538.738 1007.6 555.713 1007.6H645.359C662.334 1007.6 676.095 993.834 676.095 976.859ZM893.808 1345.69C893.808 1362.67 880.047 1376.43 863.072 1376.43H875.879C858.904 1376.43 845.143 1390.19 845.143 1407.16C845.143 1424.14 858.904 1437.9 875.879 1437.9H950.157C967.133 1437.9 980.893 1424.14 980.893 1407.16C980.893 1390.19 967.133 1376.43 950.157 1376.43H960.403V1376.4C944.022 1375.73 930.948 1362.24 930.948 1345.69C930.948 1329.15 944.022 1315.65 960.403 1314.98V1314.96H1029.56C1046.53 1314.96 1060.29 1301.19 1060.29 1284.22C1060.29 1267.24 1046.53 1253.48 1029.56 1253.48L1029.56 1253.46C1013.18 1252.79 1000.1 1239.29 1000.1 1222.75C1000.1 1206.2 1013.18 1192.71 1029.56 1192.04L1029.56 1192.01H1044.93C1061.9 1192.01 1075.66 1178.25 1075.66 1161.28C1075.66 1144.3 1061.9 1130.54 1044.93 1130.54H914.299V1130.51C897.918 1129.84 884.844 1116.35 884.844 1099.8C884.844 1083.26 897.918 1069.77 914.299 1069.09V1069.07H909.176C926.151 1069.07 939.912 1055.31 939.912 1038.33C939.912 1021.36 926.151 1007.6 909.176 1007.6H783.671C766.696 1007.6 752.935 1021.36 752.935 1038.33C752.935 1055.31 766.696 1069.07 783.671 1069.07C800.646 1069.07 814.407 1082.83 814.407 1099.8C814.407 1116.78 800.646 1130.54 783.671 1130.54C766.696 1130.54 752.935 1144.3 752.935 1161.28C752.935 1178.25 766.696 1192.01 783.671 1192.01H809.284C826.259 1192.01 840.02 1205.77 840.02 1222.75C840.02 1239.72 826.259 1253.48 809.284 1253.48H814.407C797.432 1253.48 783.671 1267.24 783.671 1284.22C783.671 1301.19 797.432 1314.96 814.407 1314.96H863.072C880.047 1314.96 893.808 1328.72 893.808 1345.69Z" fill="#4FCDF9"/>
</g>
<mask id="mask1_334_53" style="mask-type:luminance" maskUnits="userSpaceOnUse" x="519" y="477" width="1154" height="1153">
<circle cx="1096.15" cy="1053.7" r="576.301" fill="white"/>
</mask>
<g mask="url(#mask1_334_53)">
<path fill-rule="evenodd" clip-rule="evenodd" d="M1600.74 608.026C1600.74 591.051 1586.98 577.29 1570 577.29H1508.53C1491.55 577.29 1477.79 591.051 1477.79 608.026C1477.79 625.001 1491.55 638.762 1508.53 638.762H1570C1586.98 638.762 1600.74 625.001 1600.74 608.026ZM2210.34 638.762C2227.31 638.762 2241.07 652.523 2241.07 669.498C2241.07 686.473 2227.31 700.234 2210.34 700.234H2192.41V700.261C2176.03 700.932 2162.95 714.425 2162.95 730.971C2162.95 747.516 2176.03 761.009 2192.41 761.68V761.707H2233.39C2250.36 761.707 2264.12 775.468 2264.12 792.443C2264.12 809.418 2250.36 823.179 2233.39 823.179H1787.72C1770.74 823.179 1756.98 809.418 1756.98 792.443C1756.98 775.468 1770.74 761.707 1787.72 761.707H1774.91C1791.88 761.707 1805.65 747.946 1805.65 730.971C1805.65 713.995 1791.88 700.234 1774.91 700.234H1669.89C1652.92 700.234 1639.16 686.473 1639.16 669.498C1639.16 652.523 1652.92 638.762 1669.89 638.762H2210.34ZM1518.78 1314.96C1535.75 1314.96 1549.51 1301.19 1549.51 1284.22C1549.51 1267.24 1535.75 1253.48 1518.78 1253.48C1501.8 1253.48 1488.04 1239.72 1488.04 1222.75C1488.04 1205.77 1501.8 1192.01 1518.78 1192.01H1511.09C1528.07 1192.01 1541.83 1178.25 1541.83 1161.28C1541.83 1144.3 1528.07 1130.54 1511.09 1130.54H1395.83C1378.86 1130.54 1365.1 1116.78 1365.1 1099.8C1365.1 1082.83 1378.86 1069.07 1395.83 1069.07C1412.81 1069.07 1426.57 1055.31 1426.57 1038.33C1426.57 1021.36 1412.81 1007.59 1395.83 1007.59H1308.75C1291.77 1007.59 1278.01 993.834 1278.01 976.859C1278.01 959.884 1291.77 946.123 1308.75 946.123H1375.34C1392.32 946.123 1406.08 932.362 1406.08 915.387C1406.08 898.412 1392.32 884.651 1375.34 884.651C1358.37 884.651 1344.61 870.89 1344.61 853.915C1344.61 836.94 1358.37 823.179 1375.34 823.179H1518.78C1535.75 823.179 1549.51 836.94 1549.51 853.915C1549.51 870.89 1535.75 884.651 1518.78 884.651L1518.77 884.677C1502.39 885.35 1489.32 898.842 1489.32 915.387C1489.32 931.932 1502.39 945.424 1518.77 946.097L1518.78 946.123H1751.86C1768.83 946.123 1782.59 959.884 1782.59 976.859C1782.59 993.834 1768.83 1007.59 1751.86 1007.59H1700.63L1700.63 1007.62C1684.25 1008.29 1671.18 1021.79 1671.18 1038.33C1671.18 1054.88 1684.25 1068.37 1700.63 1069.04L1700.63 1069.07H1726.24C1743.22 1069.07 1756.98 1082.83 1756.98 1099.8C1756.98 1116.78 1743.22 1130.54 1726.24 1130.54H1687.82L1687.82 1130.57C1671.44 1131.24 1658.37 1144.73 1658.37 1161.28C1658.37 1177.82 1671.44 1191.31 1687.82 1191.98L1687.82 1192.01H1682.7C1699.68 1192.01 1713.44 1205.77 1713.44 1222.75C1713.44 1239.72 1699.68 1253.48 1682.7 1253.48H1631.47L1631.47 1253.51C1615.09 1254.18 1602.02 1267.67 1602.02 1284.22C1602.02 1300.77 1615.09 1314.26 1631.47 1314.93L1631.47 1314.96H1621.23C1638.2 1314.96 1651.97 1328.72 1651.97 1345.69C1651.97 1362.67 1638.2 1376.43 1621.23 1376.43H1529.02C1512.05 1376.43 1498.29 1362.67 1498.29 1345.69C1498.29 1328.72 1512.05 1314.96 1529.02 1314.96H1518.78ZM1749.29 1253.48C1766.27 1253.48 1780.03 1267.24 1780.03 1284.22C1780.03 1301.19 1766.27 1314.96 1749.29 1314.96C1732.32 1314.96 1718.56 1301.19 1718.56 1284.22C1718.56 1267.24 1732.32 1253.48 1749.29 1253.48ZM1733.93 853.915C1733.93 836.94 1720.17 823.179 1703.19 823.179H1667.33C1650.36 823.179 1636.6 836.94 1636.6 853.915C1636.6 870.89 1650.36 884.651 1667.33 884.651H1703.19C1720.17 884.651 1733.93 870.89 1733.93 853.915ZM1470.11 730.971C1470.11 713.995 1456.35 700.234 1439.37 700.234H1377.9C1360.93 700.234 1347.17 713.995 1347.17 730.971C1347.17 747.946 1360.93 761.707 1377.9 761.707H1439.37C1456.35 761.707 1470.11 747.946 1470.11 730.971ZM1536.7 700.234C1553.68 700.234 1567.44 713.995 1567.44 730.971C1567.44 747.946 1553.68 761.707 1536.7 761.707H1529.02C1512.05 761.707 1498.28 747.946 1498.28 730.971C1498.28 713.995 1512.05 700.234 1529.02 700.234H1536.7Z" fill="#4FCDF9"/>
</g>
<mask id="mask2_334_53" style="mask-type:luminance" maskUnits="userSpaceOnUse" x="519" y="477" width="1154" height="1153">
<circle cx="1096.15" cy="1053.7" r="576.301" fill="white"/>
</mask>
<g mask="url(#mask2_334_53)">
<path fill-rule="evenodd" clip-rule="evenodd" d="M1306.18 608.027C1306.18 591.052 1292.42 577.291 1275.45 577.291H968.087C951.112 577.291 937.351 563.53 937.351 546.554C937.351 529.579 951.112 515.818 968.087 515.818H1093.59C1110.57 515.818 1124.33 502.057 1124.33 485.082C1124.33 468.107 1110.57 454.346 1093.59 454.346H1052.61C1035.64 454.346 1021.87 440.585 1021.87 423.61C1021.87 406.635 1035.64 392.874 1052.61 392.874H1211.41C1228.39 392.874 1242.15 406.635 1242.15 423.61C1242.15 440.585 1228.39 454.346 1211.41 454.346H1216.54L1216.54 454.373C1200.16 455.043 1187.08 468.536 1187.08 485.082C1187.08 501.629 1200.16 515.121 1216.54 515.792L1216.54 515.818H1626.35C1643.33 515.818 1657.09 529.579 1657.09 546.554C1657.09 563.53 1643.33 577.291 1626.35 577.291H1452.18L1452.18 577.317C1435.8 577.99 1422.72 591.482 1422.72 608.027C1422.72 624.572 1435.8 638.063 1452.18 638.736L1452.18 638.763H1459.86C1476.84 638.763 1490.6 652.524 1490.6 669.499C1490.6 686.474 1476.84 700.235 1459.86 700.235H1265.2C1248.23 700.235 1234.47 686.474 1234.47 669.499C1234.47 652.524 1248.23 638.763 1265.2 638.763H1275.45C1292.42 638.763 1306.18 625.002 1306.18 608.027ZM1577.69 761.707C1594.66 761.707 1608.42 775.468 1608.42 792.443C1608.42 809.418 1594.66 823.179 1577.69 823.179H1418.88C1401.91 823.179 1388.15 809.418 1388.15 792.443C1388.15 775.468 1401.91 761.707 1418.88 761.707H1577.69ZM1664.77 669.499C1664.77 652.524 1651.01 638.763 1634.03 638.763H1582.81C1565.83 638.763 1552.07 652.524 1552.07 669.499C1552.07 686.474 1565.83 700.235 1582.81 700.235H1634.03C1651.01 700.235 1664.77 686.474 1664.77 669.499ZM1142.26 638.763C1159.23 638.763 1172.99 652.524 1172.99 669.499C1172.99 686.474 1159.23 700.235 1142.26 700.235H1091.03C1074.06 700.235 1060.29 686.474 1060.29 669.499C1060.29 652.524 1074.06 638.763 1091.03 638.763H1142.26ZM1764.66 423.61C1764.66 406.635 1750.9 392.874 1733.93 392.874H1334.36C1317.38 392.874 1303.62 406.635 1303.62 423.61C1303.62 440.585 1317.38 454.346 1334.36 454.346H1733.93C1750.9 454.346 1764.66 440.585 1764.66 423.61Z" fill="white"/>
</g>
<mask id="mask3_334_53" style="mask-type:luminance" maskUnits="userSpaceOnUse" x="-257" y="419" width="1153" height="1153">
<circle cx="319.301" cy="995.301" r="576.301" fill="white"/>
</mask>
<g mask="url(#mask3_334_53)">
<rect opacity="0.0775757" x="780.043" y="354.966" width="641.573" height="1280.67" fill="black"/>
</g>
<path d="M350.282 189.953C348.911 188.942 347.238 188.436 345.262 188.436C343.286 188.436 341.593 188.942 340.181 189.953C339.657 190.358 339.233 190.778 338.911 191.216C338.75 191.081 338.568 190.964 338.366 190.862C337.157 190.121 335.705 189.75 334.011 189.75C332.318 189.75 330.866 190.121 329.657 190.862C328.446 191.604 327.842 192.497 327.842 193.541C327.842 194.586 328.446 195.479 329.657 196.22C330.866 196.962 332.318 197.332 334.011 197.332C335.705 197.332 337.157 196.962 338.366 196.22C338.528 196.119 338.689 196.018 338.85 195.918C339.173 196.423 339.617 196.894 340.181 197.332C341.593 198.343 343.286 198.849 345.262 198.849C347.238 198.849 348.911 198.343 350.282 197.332C351.694 196.321 352.399 195.091 352.399 193.642C352.399 192.193 351.694 190.964 350.282 189.953ZM335.161 200.415C334.515 200.955 334.193 201.612 334.193 202.387C334.193 203.162 334.515 203.82 335.161 204.358C335.806 204.897 336.593 205.167 337.519 205.167C338.447 205.167 339.233 204.897 339.878 204.358C340.524 203.82 340.846 203.162 340.846 202.387C340.846 201.612 340.524 200.955 339.878 200.415C339.233 199.876 338.447 199.607 337.519 199.607C336.593 199.607 335.806 199.876 335.161 200.415ZM292.397 114.337C292.68 114.135 292.82 113.865 292.82 113.528C292.82 113.191 292.68 112.905 292.397 112.669C292.155 112.466 291.832 112.365 291.429 112.365C291.026 112.365 290.684 112.466 290.401 112.669C290.159 112.905 290.038 113.191 290.038 113.528C290.038 113.865 290.159 114.135 290.401 114.337C290.684 114.573 291.026 114.69 291.429 114.69C291.832 114.69 292.155 114.573 292.397 114.337ZM305.281 105.845C304.676 105.34 303.95 105.087 303.103 105.087C302.256 105.087 301.531 105.34 300.925 105.845C300.321 106.351 300.019 106.958 300.019 107.665C300.019 108.372 300.321 108.979 300.925 109.484C301.531 109.99 302.256 110.242 303.103 110.242C303.95 110.242 304.676 109.99 305.281 109.484C305.885 108.979 306.188 108.372 306.188 107.665C306.188 106.958 305.885 106.351 305.281 105.845ZM323.85 112.163C322.599 111.456 321.068 111.102 319.253 111.102C317.438 111.102 315.886 111.456 314.596 112.163C313.345 112.905 312.721 113.781 312.721 114.792C312.721 115.803 313.345 116.662 314.596 117.369C315.886 118.111 317.438 118.481 319.253 118.481C320.334 118.481 321.302 118.347 322.156 118.077C323.117 117.41 324.084 116.854 325.06 116.408C325.543 115.934 325.785 115.395 325.785 114.792C325.785 113.781 325.14 112.905 323.85 112.163ZM376.231 176.356C376.231 176.76 376.413 177.114 376.775 177.417C377.138 177.721 377.562 177.872 378.046 177.872C378.53 177.872 378.953 177.721 379.315 177.417C379.679 177.114 379.86 176.76 379.86 176.356C379.86 175.952 379.679 175.598 379.315 175.294C378.953 174.991 378.53 174.84 378.046 174.84C377.562 174.84 377.138 174.991 376.775 175.294C376.413 175.598 376.231 175.952 376.231 176.356ZM312.176 223.009C311.128 223.009 310.16 223.195 309.273 223.565C308.588 223.835 307.962 224.206 307.397 224.677C306.067 225.789 305.401 227.12 305.401 228.67C305.401 230.221 306.067 231.551 307.397 232.663C308.728 233.776 310.321 234.332 312.176 234.332C314.03 234.332 315.624 233.776 316.954 232.663C318.285 231.551 318.95 230.221 318.95 228.67C318.95 227.12 318.285 225.789 316.954 224.677C316.51 224.307 316.048 224.003 315.564 223.767C314.555 223.262 313.426 223.009 312.176 223.009Z" fill="#DDDBD9"/>
<path d="M376.775 177.418C376.413 177.114 376.231 176.761 376.231 176.357C376.231 175.952 376.413 175.598 376.775 175.295C377.138 174.991 377.562 174.84 378.046 174.84C378.53 174.84 378.953 174.991 379.315 175.295C379.679 175.598 379.86 175.952 379.86 176.357C379.86 176.761 379.679 177.114 379.315 177.418C378.953 177.721 378.53 177.873 378.046 177.873C377.562 177.873 377.138 177.721 376.775 177.418ZM374.538 144.967C374.738 144.45 374.899 143.944 375.02 143.452C375.169 144.063 375.31 144.669 375.445 145.271C375.165 145.114 374.862 145.013 374.538 144.967ZM354.214 129.906C352.359 125.356 349.314 124.412 345.081 127.075C343.065 128.86 341.37 128.86 340 127.075C336.37 124.244 335.766 120.875 338.185 116.966C333.366 114.952 328.991 114.767 325.06 116.409C324.084 116.854 323.117 117.411 322.156 118.078C321.571 118.519 320.987 119.007 320.402 119.544C319.636 122.037 317.519 122.812 314.052 121.869C318.568 130.292 319.596 136.021 317.136 139.054C311.047 141.885 308.325 144.951 308.97 148.253C309.132 150.275 307.6 151.994 304.373 153.409C294.373 129.552 282.699 125.474 269.352 141.177C256.247 170.56 268.848 188.842 307.156 196.018C310.14 194.738 312.62 191.301 314.596 185.708C318.104 186.01 320.14 183.871 320.705 179.288C319.253 173.391 317.217 168.927 314.596 165.894C311.571 163.097 312.237 160.822 316.592 159.07C318.285 158.026 318.285 156.054 316.592 153.156C316.43 150.325 318.386 148.456 322.458 147.545C326.128 148.456 329.516 146.484 332.621 141.632C332.983 145.608 336.794 149.146 344.053 152.247C345.464 151.033 346.573 151.657 347.379 154.117V157.908L353.427 164.731C358.71 165.742 361.17 164.63 360.807 161.395C357.581 159.541 354.375 156.172 351.19 151.286C348.407 145.693 349.677 143.502 355.001 144.715L367.158 155.532C370.493 158.135 373.597 157.983 376.473 155.077C376.511 158.547 376.248 162.187 375.686 165.994C373.186 182.641 366.513 196.154 355.666 206.532C344.818 216.877 332.115 222.588 317.56 223.667C316.874 223.7 316.209 223.735 315.564 223.768C316.048 224.004 316.51 224.307 316.954 224.678C318.285 225.79 318.95 227.121 318.95 228.671C318.95 230.221 318.285 231.552 316.954 232.664C315.624 233.776 314.03 234.332 312.176 234.332C310.321 234.332 308.728 233.776 307.397 232.664C306.067 231.552 305.401 230.221 305.401 228.671C305.401 227.121 306.067 225.79 307.397 224.678C307.963 224.206 308.588 223.836 309.273 223.566C297.74 222.454 286.732 217.315 276.247 208.15C263.223 196.76 255.016 175.328 251.629 143.856C249.21 150.899 248 158.447 248 166.5C248 185.708 254.896 202.084 268.687 215.631C282.517 229.21 299.212 236 318.769 236C338.326 236 355.001 229.21 368.791 215.631C382.622 202.084 389.538 185.708 389.538 166.5C389.538 147.293 382.622 130.899 368.791 117.32C359.556 108.222 349.012 102.19 337.157 99.2244C346.834 106.638 356.29 115.449 365.525 125.66C368.831 129.315 371.391 133.376 373.206 137.841C371.026 136.252 368.849 136.184 366.674 137.638C365.626 136.999 364.718 136.83 363.952 137.134L354.214 129.906Z" fill="#DADEDD"/>
<path d="M303.103 105.088C303.951 105.088 304.676 105.34 305.281 105.845C305.885 106.351 306.188 106.958 306.188 107.665C306.188 108.372 305.885 108.98 305.281 109.484C304.676 109.99 303.951 110.243 303.103 110.243C302.256 110.243 301.531 109.99 300.925 109.484C300.321 108.98 300.019 108.372 300.019 107.665C300.019 106.958 300.321 106.351 300.925 105.845C301.531 105.34 302.256 105.088 303.103 105.088ZM292.82 113.529C292.82 113.866 292.68 114.135 292.397 114.337C292.155 114.573 291.832 114.691 291.429 114.691C291.027 114.691 290.684 114.573 290.401 114.337C290.159 114.135 290.039 113.866 290.039 113.529C290.039 113.192 290.159 112.905 290.401 112.669C290.684 112.467 291.027 112.366 291.429 112.366C291.832 112.366 292.155 112.467 292.397 112.669C292.68 112.905 292.82 113.192 292.82 113.529ZM334.193 202.388C334.193 201.612 334.516 200.955 335.161 200.416C335.806 199.877 336.593 199.607 337.52 199.607C338.447 199.607 339.233 199.877 339.878 200.416C340.524 200.955 340.846 201.612 340.846 202.388C340.846 203.163 340.524 203.82 339.878 204.358C339.233 204.897 338.447 205.167 337.52 205.167C336.593 205.167 335.806 204.897 335.161 204.358C334.516 203.82 334.193 203.163 334.193 202.388ZM345.262 188.436C347.238 188.436 348.912 188.942 350.282 189.953C351.694 190.964 352.399 192.194 352.399 193.643C352.399 195.092 351.694 196.321 350.282 197.332C348.912 198.343 347.238 198.849 345.262 198.849C343.286 198.849 341.593 198.343 340.181 197.332C339.617 196.894 339.173 196.423 338.85 195.918C338.689 196.018 338.528 196.119 338.366 196.22C337.157 196.962 335.705 197.332 334.012 197.332C332.318 197.332 330.866 196.962 329.657 196.22C328.447 195.479 327.842 194.587 327.842 193.542C327.842 192.497 328.447 191.604 329.657 190.863C330.866 190.121 332.318 189.751 334.012 189.751C335.705 189.751 337.157 190.121 338.366 190.863C338.568 190.964 338.75 191.082 338.912 191.216C339.233 190.778 339.657 190.358 340.181 189.953C341.593 188.942 343.286 188.436 345.262 188.436ZM319.253 111.102C321.068 111.102 322.6 111.456 323.85 112.163C325.14 112.905 325.785 113.781 325.785 114.792C325.785 115.395 325.544 115.934 325.06 116.409C328.992 114.767 333.367 114.952 338.185 116.966C335.766 120.875 336.37 124.244 340 127.075C341.371 128.86 343.065 128.86 345.081 127.075C349.314 124.412 352.359 125.356 354.214 129.905L363.953 137.133C364.718 136.83 365.626 136.999 366.674 137.638C368.849 136.184 371.027 136.252 373.206 137.841C371.392 133.376 368.831 129.315 365.525 125.659C356.29 115.449 346.835 106.638 337.157 99.224C335.584 98.8194 334.012 98.4824 332.439 98.2131C328.044 97.4046 323.488 97 318.769 97C299.212 97 282.518 103.773 268.687 117.319C260.662 125.205 254.976 134.05 251.63 143.855C255.017 175.328 263.223 196.759 276.247 208.15C286.732 217.315 297.74 222.453 309.273 223.566C310.16 223.195 311.128 223.009 312.176 223.009C313.426 223.009 314.556 223.262 315.564 223.768C316.209 223.735 316.874 223.7 317.56 223.667C332.116 222.588 344.818 216.877 355.666 206.532C366.513 196.153 373.186 182.641 375.686 165.994C376.248 162.186 376.511 158.547 376.473 155.076C373.597 157.983 370.493 158.135 367.158 155.531L355.001 144.715C349.677 143.502 348.408 145.692 351.19 151.285C354.376 156.171 357.581 159.541 360.808 161.395C361.17 164.63 358.71 165.742 353.427 164.731L347.379 157.907V154.117C346.573 151.657 345.464 151.033 344.053 152.246C336.794 149.146 332.983 145.608 332.621 141.631C329.516 146.484 326.128 148.455 322.458 147.545C318.387 148.455 316.43 150.325 316.592 153.156C318.285 156.054 318.285 158.026 316.592 159.069C312.237 160.822 311.572 163.096 314.596 165.894C317.217 168.926 319.253 173.391 320.705 179.288C320.14 183.87 318.104 186.01 314.596 185.707C312.62 191.301 310.14 194.738 307.156 196.018C268.848 188.841 256.247 170.56 269.352 141.176C282.699 125.474 294.373 129.552 304.373 153.408C307.6 151.994 309.132 150.275 308.971 148.253C308.325 144.951 311.047 141.885 317.136 139.054C319.596 136.021 318.568 130.292 314.052 121.869C317.519 122.812 319.636 122.037 320.402 119.543C320.988 119.006 321.572 118.518 322.156 118.078C321.302 118.347 320.334 118.482 319.253 118.482C317.438 118.482 315.886 118.111 314.596 117.37C313.345 116.662 312.721 115.803 312.721 114.792C312.721 113.781 313.345 112.905 314.596 112.163C315.886 111.456 317.438 111.102 319.253 111.102ZM375.021 143.452C374.9 143.944 374.738 144.45 374.538 144.967C374.862 145.012 375.165 145.113 375.445 145.271C375.311 144.669 375.169 144.063 375.021 143.452Z" fill="#F7F7F7"/>
</g>
<defs>
<clipPath id="clip0_334_53">
<rect width="1717" height="1024" fill="white"/>
</clipPath>
</defs>
</svg>
