<svg width="375" height="237" viewBox="0 0 375 237" fill="none" xmlns="http://www.w3.org/2000/svg">
<g clip-path="url(#clip0_328_2571)">
<rect width="375" height="237" fill="black"/>
<circle cx="187.5" cy="206.5" r="206.5" fill="#545BFE"/>
<mask id="mask0_328_2571" style="mask-type:luminance" maskUnits="userSpaceOnUse" x="-19" y="0" width="413" height="413">
<circle cx="187.5" cy="206.5" r="206.5" fill="white"/>
</mask>
<g mask="url(#mask0_328_2571)">
<path fill-rule="evenodd" clip-rule="evenodd" d="M153.542 24.7799C153.542 18.6974 148.611 13.7666 142.529 13.7666H-45.6156C-51.6981 13.7666 -56.6289 18.6974 -56.6289 24.7799C-56.6289 30.8624 -51.6981 35.7933 -45.6156 35.7933H-1.56224C4.52026 35.7933 9.4511 40.7241 9.4511 46.8066C9.4511 52.8891 4.52026 57.8199 -1.56224 57.8199H-7.0689C-13.1514 57.8199 -18.0822 62.7508 -18.0822 68.8333C-18.0822 74.9158 -13.1514 79.8466 -7.0689 79.8466H-10.74C-4.65752 79.8466 0.273319 84.7775 0.273319 90.8599C0.273319 96.9424 -4.65752 101.873 -10.74 101.873H-19.9178C-26.0003 101.873 -30.9311 106.804 -30.9311 112.887C-30.9311 118.969 -26.0003 123.9 -19.9178 123.9H89.2978C95.3803 123.9 100.311 118.969 100.311 112.887C100.311 106.804 95.3803 101.873 89.2978 101.873H84.7089L84.7089 101.864C78.8393 101.623 74.1547 96.7886 74.1547 90.8599C74.1547 84.9312 78.8393 80.0967 84.7089 79.856L84.7089 79.8466H148.036C154.118 79.8466 159.049 74.9158 159.049 68.8333C159.049 62.7508 154.118 57.8199 148.036 57.8199H141.611L141.611 57.8105C135.742 57.5698 131.057 52.7353 131.057 46.8066C131.057 40.8779 135.742 36.0434 141.611 35.8027L141.611 35.7933H142.529C148.611 35.7933 153.542 30.8624 153.542 24.7799ZM70.942 145.926C77.0245 145.926 81.9554 150.857 81.9554 156.94C81.9554 163.022 77.0245 167.953 70.942 167.953C64.8595 167.953 59.9287 163.022 59.9287 156.94C59.9287 150.857 64.8595 145.926 70.942 145.926ZM36.984 178.966C36.984 172.883 32.0532 167.953 25.9707 167.953H-6.15156C-12.2341 167.953 -17.1649 172.883 -17.1649 178.966C-17.1649 185.048 -12.2341 189.979 -6.15156 189.979H25.9707C32.0532 189.979 36.984 185.048 36.984 178.966ZM114.995 311.126C114.995 317.209 110.064 322.139 103.981 322.139H108.57C102.488 322.139 97.5567 327.07 97.5567 333.153C97.5567 339.235 102.488 344.166 108.57 344.166H135.186C141.268 344.166 146.199 339.235 146.199 333.153C146.199 327.07 141.268 322.139 135.186 322.139H138.857V322.13C132.987 321.889 128.303 317.055 128.303 311.126C128.303 305.197 132.987 300.363 138.857 300.122V300.113H163.637C169.719 300.113 174.65 295.182 174.65 289.099C174.65 283.017 169.719 278.086 163.637 278.086L163.637 278.077C157.767 277.836 153.083 273.001 153.083 267.073C153.083 261.144 157.767 256.309 163.637 256.069L163.637 256.059H169.143C175.226 256.059 180.157 251.129 180.157 245.046C180.157 238.964 175.226 234.033 169.143 234.033H122.337V234.023C116.467 233.783 111.783 228.948 111.783 223.019C111.783 217.091 116.467 212.256 122.337 212.015V212.006H120.501C126.584 212.006 131.515 207.075 131.515 200.993C131.515 194.91 126.584 189.979 120.501 189.979H75.5301C69.4476 189.979 64.5167 194.91 64.5167 200.993C64.5167 207.075 69.4476 212.006 75.5301 212.006C81.6126 212.006 86.5434 216.937 86.5434 223.019C86.5434 229.102 81.6126 234.033 75.5301 234.033C69.4476 234.033 64.5167 238.964 64.5167 245.046C64.5167 251.129 69.4476 256.059 75.5301 256.059H84.7079C90.7903 256.059 95.7212 260.99 95.7212 267.073C95.7212 273.155 90.7903 278.086 84.7079 278.086H86.5434C80.4609 278.086 75.5301 283.017 75.5301 289.099C75.5301 295.182 80.4609 300.113 86.5434 300.113H103.981C110.064 300.113 114.995 305.044 114.995 311.126Z" fill="#4FCDF9"/>
</g>
<mask id="mask1_328_2571" style="mask-type:luminance" maskUnits="userSpaceOnUse" x="-19" y="0" width="413" height="413">
<circle cx="187.5" cy="206.5" r="206.5" fill="white"/>
</mask>
<g mask="url(#mask1_328_2571)">
<path fill-rule="evenodd" clip-rule="evenodd" d="M368.302 46.807C368.302 40.7245 363.371 35.7937 357.289 35.7937H335.262C329.18 35.7937 324.249 40.7245 324.249 46.807C324.249 52.8895 329.18 57.8204 335.262 57.8204H357.289C363.371 57.8204 368.302 52.8895 368.302 46.807ZM586.732 57.8207C592.815 57.8207 597.746 62.7515 597.746 68.834C597.746 74.9165 592.815 79.8474 586.732 79.8474H580.308L580.308 79.8568C574.438 80.0975 569.754 84.932 569.754 90.8607C569.754 96.7894 574.438 101.624 580.308 101.865L580.308 101.874H594.992C601.075 101.874 606.006 106.805 606.006 112.887C606.006 118.97 601.075 123.901 594.992 123.901H435.299C429.217 123.901 424.286 118.97 424.286 112.887C424.286 106.805 429.217 101.874 435.299 101.874H430.71C436.793 101.874 441.724 96.9432 441.724 90.8607C441.724 84.7782 436.793 79.8474 430.71 79.8474H393.081C386.999 79.8474 382.068 74.9165 382.068 68.834C382.068 62.7515 386.999 57.8207 393.081 57.8207H586.732ZM338.933 300.113C345.016 300.113 349.947 295.183 349.947 289.1C349.947 283.018 345.016 278.087 338.933 278.087C332.851 278.087 327.92 273.156 327.92 267.073C327.92 260.991 332.851 256.06 338.933 256.06H336.18C342.262 256.06 347.193 251.129 347.193 245.047C347.193 238.964 342.262 234.033 336.18 234.033H294.88C288.797 234.033 283.867 229.103 283.867 223.02C283.867 216.938 288.797 212.007 294.88 212.007C300.962 212.007 305.893 207.076 305.893 200.993C305.893 194.911 300.962 189.98 294.88 189.98H263.675C257.593 189.98 252.662 185.049 252.662 178.967C252.662 172.884 257.593 167.953 263.675 167.953H287.538C293.62 167.953 298.551 163.023 298.551 156.94C298.551 150.858 293.62 145.927 287.538 145.927C281.455 145.927 276.524 140.996 276.524 134.913C276.524 128.831 281.455 123.9 287.538 123.9H338.933C345.016 123.9 349.947 128.831 349.947 134.913C349.947 140.996 345.016 145.927 338.933 145.927L338.932 145.936C333.063 146.177 328.379 151.012 328.379 156.94C328.379 162.868 333.063 167.703 338.932 167.944L338.933 167.953H422.451C428.533 167.953 433.464 172.884 433.464 178.967C433.464 185.049 428.533 189.98 422.451 189.98H404.095L404.095 189.99C398.226 190.23 393.541 195.065 393.541 200.993C393.541 206.922 398.226 211.757 404.095 211.997L404.095 212.007H413.273C419.356 212.007 424.287 216.938 424.287 223.02C424.287 229.103 419.356 234.033 413.273 234.033H399.507L399.506 234.043C393.636 234.284 388.952 239.118 388.952 245.047C388.952 250.975 393.636 255.81 399.506 256.051L399.507 256.06H397.671C403.753 256.06 408.684 260.991 408.684 267.073C408.684 273.156 403.753 278.087 397.671 278.087H379.315L379.315 278.096C373.446 278.337 368.761 283.171 368.761 289.1C368.761 295.029 373.446 299.863 379.315 300.104L379.315 300.113H375.644C381.727 300.113 386.658 305.044 386.658 311.127C386.658 317.209 381.727 322.14 375.644 322.14H342.604C336.522 322.14 331.591 317.209 331.591 311.127C331.591 305.044 336.522 300.113 342.604 300.113H338.933ZM421.533 278.087C427.615 278.087 432.546 283.018 432.546 289.1C432.546 295.183 427.615 300.114 421.533 300.114C415.45 300.114 410.519 295.183 410.519 289.1C410.519 283.018 415.45 278.087 421.533 278.087ZM416.027 134.913C416.027 128.831 411.096 123.9 405.013 123.9H392.165C386.082 123.9 381.151 128.831 381.151 134.913C381.151 140.996 386.082 145.927 392.165 145.927H405.013C411.096 145.927 416.027 140.996 416.027 134.913ZM321.496 90.8602C321.496 84.7777 316.565 79.8469 310.482 79.8469H288.456C282.373 79.8469 277.442 84.7777 277.442 90.8602C277.442 96.9427 282.373 101.874 288.456 101.874H310.482C316.565 101.874 321.496 96.9427 321.496 90.8602ZM345.357 79.8469C351.439 79.8469 356.37 84.7777 356.37 90.8602C356.37 96.9427 351.439 101.874 345.357 101.874H342.604C336.521 101.874 331.59 96.9427 331.59 90.8602C331.59 84.7777 336.521 79.8469 342.604 79.8469H345.357Z" fill="#4FCDF9"/>
</g>
<mask id="mask2_328_2571" style="mask-type:luminance" maskUnits="userSpaceOnUse" x="-19" y="0" width="413" height="413">
<circle cx="187.5" cy="206.5" r="206.5" fill="white"/>
</mask>
<g mask="url(#mask2_328_2571)">
<path fill-rule="evenodd" clip-rule="evenodd" d="M427.04 -19.2733C427.04 -25.3558 422.109 -30.2866 416.026 -30.2866H272.853C266.77 -30.2866 261.84 -25.3558 261.84 -19.2733C261.84 -13.1908 266.77 -8.25995 272.853 -8.25995H416.026C422.109 -8.25995 427.04 -13.1908 427.04 -19.2733ZM262.758 46.807C262.758 40.7245 257.827 35.7936 251.745 35.7936H141.611C135.529 35.7936 130.598 30.8628 130.598 24.7803C130.598 18.6978 135.529 13.767 141.611 13.767H186.583C192.665 13.767 197.596 8.83613 197.596 2.75364C197.596 -3.32886 192.665 -8.2597 186.583 -8.2597H171.898C165.816 -8.2597 160.885 -13.1905 160.885 -19.273C160.885 -25.3555 165.816 -30.2864 171.898 -30.2864H228.8C234.883 -30.2864 239.814 -25.3555 239.814 -19.273C239.814 -13.1905 234.883 -8.2597 228.8 -8.2597H230.636L230.636 -8.25032C224.766 -8.00992 220.081 -3.17526 220.081 2.75364C220.081 8.68253 224.766 13.5172 230.636 13.7576L230.636 13.767H377.48C383.563 13.767 388.494 18.6978 388.494 24.7803C388.494 30.8628 383.563 35.7936 377.48 35.7936H315.071L315.071 35.8031C309.201 36.0442 304.517 40.8786 304.517 46.807C304.517 52.7354 309.201 57.5697 315.071 57.8109L315.071 57.8203H317.825C323.907 57.8203 328.838 62.7512 328.838 68.8337C328.838 74.9161 323.907 79.847 317.825 79.847H248.074C241.991 79.847 237.06 74.9161 237.06 68.8337C237.06 62.7512 241.991 57.8203 248.074 57.8203H251.745C257.827 57.8203 262.758 52.8895 262.758 46.807ZM360.042 101.874C366.125 101.874 371.056 106.804 371.056 112.887C371.056 118.969 366.125 123.9 360.042 123.9H303.14C297.058 123.9 292.127 118.969 292.127 112.887C292.127 106.804 297.058 101.874 303.14 101.874H360.042ZM391.247 68.8337C391.247 62.7512 386.316 57.8203 380.233 57.8203H361.878C355.795 57.8203 350.864 62.7512 350.864 68.8337C350.864 74.9162 355.795 79.847 361.878 79.847H380.233C386.316 79.847 391.247 74.9162 391.247 68.8337ZM204.02 57.8203C210.103 57.8203 215.034 62.7512 215.034 68.8337C215.034 74.9162 210.103 79.847 204.02 79.847H185.665C179.582 79.847 174.652 74.9162 174.652 68.8337C174.652 62.7512 179.582 57.8203 185.665 57.8203H204.02Z" fill="white"/>
</g>
<mask id="mask3_328_2571" style="mask-type:luminance" maskUnits="userSpaceOnUse" x="-19" y="0" width="413" height="413">
<circle cx="187.5" cy="206.5" r="206.5" fill="white"/>
</mask>
<g mask="url(#mask3_328_2571)">
<rect opacity="0.0775757" x="187.944" y="-22.9443" width="229.888" height="458.889" fill="black"/>
</g>
</g>
<defs>
<clipPath id="clip0_328_2571">
<rect width="375" height="237" fill="white"/>
</clipPath>
</defs>
</svg>
