<svg width="412" height="917" viewBox="0 0 412 917" fill="none" xmlns="http://www.w3.org/2000/svg">
<g clip-path="url(#clip0_328_2571)">
<circle cx="205.5" cy="958.5" r="328.5" fill="#545BFE"/>
<mask id="mask0_328_2571" style="mask-type:luminance" maskUnits="userSpaceOnUse" x="-123" y="630" width="657" height="657">
<circle cx="205.5" cy="958.5" r="328.5" fill="white"/>
</mask>
<g mask="url(#mask0_328_2571)">
<path fill-rule="evenodd" clip-rule="evenodd" d="M151.48 669.42C151.48 659.744 143.636 651.9 133.96 651.9H-165.34C-175.016 651.9 -182.86 659.744 -182.86 669.42C-182.86 679.096 -175.016 686.94 -165.34 686.94H-95.2601C-85.5841 686.94 -77.7401 694.784 -77.7401 704.46C-77.7401 714.136 -85.5841 721.98 -95.2601 721.98H-104.02C-113.696 721.98 -121.54 729.824 -121.54 739.5C-121.54 749.176 -113.696 757.02 -104.02 757.02H-109.86C-100.184 757.02 -92.3401 764.864 -92.3401 774.54C-92.3401 784.216 -100.184 792.06 -109.86 792.06H-124.46C-134.136 792.06 -141.98 799.904 -141.98 809.58C-141.98 819.256 -134.136 827.1 -124.46 827.1H49.2799C58.9559 827.1 66.7999 819.256 66.7999 809.58C66.7999 799.904 58.9559 792.06 49.2799 792.06H41.9799L41.9799 792.045C32.6426 791.662 25.1903 783.971 25.1903 774.54C25.1903 765.109 32.6426 757.418 41.9799 757.035L41.9799 757.02H142.72C152.396 757.02 160.24 749.176 160.24 739.5C160.24 729.824 152.396 721.98 142.72 721.98H132.5V721.965C123.163 721.582 115.71 713.891 115.71 704.46C115.71 695.029 123.163 687.338 132.5 686.955V686.94H133.96C143.636 686.94 151.48 679.096 151.48 669.42ZM20.0803 862.14C29.7563 862.14 37.6003 869.984 37.6003 879.66C37.6003 889.336 29.7563 897.18 20.0803 897.18C10.4042 897.18 2.56026 889.336 2.56026 879.66C2.56026 869.984 10.4042 862.14 20.0803 862.14ZM-33.94 914.7C-33.94 905.024 -41.7839 897.18 -51.4599 897.18H-102.56C-112.236 897.18 -120.08 905.024 -120.08 914.7C-120.08 924.376 -112.236 932.22 -102.56 932.22H-51.4599C-41.7839 932.22 -33.94 924.376 -33.94 914.7ZM90.1596 1124.94C90.1596 1134.62 82.3156 1142.46 72.6396 1142.46H79.9396C70.2636 1142.46 62.4196 1150.3 62.4196 1159.98C62.4196 1169.66 70.2636 1177.5 79.9396 1177.5H122.28C131.956 1177.5 139.8 1169.66 139.8 1159.98C139.8 1150.3 131.956 1142.46 122.28 1142.46H128.12V1142.45C118.782 1142.06 111.33 1134.37 111.33 1124.94C111.33 1115.51 118.782 1107.82 128.12 1107.44V1107.42H167.54C177.216 1107.42 185.06 1099.58 185.06 1089.9C185.06 1080.22 177.216 1072.38 167.54 1072.38L167.54 1072.37C158.202 1071.98 150.75 1064.29 150.75 1054.86C150.75 1045.43 158.202 1037.74 167.54 1037.36L167.54 1037.34H176.3C185.976 1037.34 193.82 1029.5 193.82 1019.82C193.82 1010.14 185.976 1002.3 176.3 1002.3H101.84V1002.29C92.5023 1001.9 85.05 994.211 85.05 984.78C85.05 975.349 92.5023 967.658 101.84 967.275V967.26H98.9196C108.596 967.26 116.44 959.416 116.44 949.74C116.44 940.064 108.596 932.22 98.9196 932.22H27.3796C17.7036 932.22 9.85962 940.064 9.85962 949.74C9.85962 959.416 17.7036 967.26 27.3796 967.26C37.0556 967.26 44.8996 975.104 44.8996 984.78C44.8996 994.456 37.0556 1002.3 27.3796 1002.3C17.7036 1002.3 9.85962 1010.14 9.85962 1019.82C9.85962 1029.5 17.7036 1037.34 27.3796 1037.34H41.9796C51.6556 1037.34 59.4996 1045.18 59.4996 1054.86C59.4996 1064.54 51.6556 1072.38 41.9796 1072.38H44.8996C35.2236 1072.38 27.3796 1080.22 27.3796 1089.9C27.3796 1099.58 35.2236 1107.42 44.8996 1107.42H72.6396C82.3156 1107.42 90.1596 1115.26 90.1596 1124.94Z" fill="#4FCDF9"/>
</g>
<mask id="mask1_328_2571" style="mask-type:luminance" maskUnits="userSpaceOnUse" x="-123" y="630" width="657" height="657">
<circle cx="205.5" cy="958.5" r="328.5" fill="white"/>
</mask>
<g mask="url(#mask1_328_2571)">
<path fill-rule="evenodd" clip-rule="evenodd" d="M493.12 704.46C493.12 694.784 485.276 686.94 475.6 686.94H440.56C430.884 686.94 423.04 694.784 423.04 704.46C423.04 714.136 430.884 721.98 440.56 721.98H475.6C485.276 721.98 493.12 714.136 493.12 704.46ZM840.601 721.98C850.277 721.98 858.121 729.824 858.121 739.5C858.121 749.176 850.277 757.02 840.601 757.02H830.381V757.035C821.043 757.418 813.591 765.109 813.591 774.54C813.591 783.971 821.043 791.662 830.381 792.045V792.06H853.741C863.417 792.06 871.261 799.904 871.261 809.58C871.261 819.256 863.417 827.1 853.741 827.1H599.701C590.025 827.1 582.181 819.256 582.181 809.58C582.181 799.904 590.025 792.06 599.701 792.06H592.401C602.077 792.06 609.921 784.216 609.921 774.54C609.921 764.864 602.077 757.02 592.401 757.02H532.541C522.865 757.02 515.021 749.176 515.021 739.5C515.021 729.824 522.865 721.98 532.541 721.98H840.601ZM446.401 1107.42C456.077 1107.42 463.921 1099.58 463.921 1089.9C463.921 1080.22 456.077 1072.38 446.401 1072.38C436.725 1072.38 428.881 1064.54 428.881 1054.86C428.881 1045.18 436.725 1037.34 446.401 1037.34H442.021C451.697 1037.34 459.541 1029.5 459.541 1019.82C459.541 1010.14 451.697 1002.3 442.021 1002.3H376.321C366.645 1002.3 358.801 994.456 358.801 984.78C358.801 975.104 366.645 967.26 376.321 967.26C385.997 967.26 393.841 959.416 393.841 949.74C393.841 940.064 385.997 932.22 376.321 932.22H326.681C317.005 932.22 309.161 924.376 309.161 914.7C309.161 905.024 317.005 897.18 326.681 897.18H364.641C374.317 897.18 382.161 889.336 382.161 879.66C382.161 869.984 374.317 862.14 364.641 862.14C354.965 862.14 347.121 854.296 347.121 844.62C347.121 834.944 354.965 827.1 364.641 827.1H446.401C456.077 827.1 463.921 834.944 463.921 844.62C463.921 854.296 456.077 862.14 446.401 862.14L446.399 862.155C437.063 862.539 429.611 870.229 429.611 879.66C429.611 889.091 437.063 896.781 446.399 897.165L446.401 897.18H579.261C588.937 897.18 596.781 905.024 596.781 914.7C596.781 924.376 588.937 932.22 579.261 932.22H550.061L550.061 932.235C540.723 932.618 533.271 940.309 533.271 949.74C533.271 959.171 540.723 966.862 550.061 967.245L550.061 967.26H564.661C574.337 967.26 582.181 975.104 582.181 984.78C582.181 994.456 574.337 1002.3 564.661 1002.3H542.761L542.759 1002.31C533.423 1002.7 525.971 1010.39 525.971 1019.82C525.971 1029.25 533.423 1036.94 542.759 1037.32L542.761 1037.34H539.841C549.517 1037.34 557.361 1045.18 557.361 1054.86C557.361 1064.54 549.517 1072.38 539.841 1072.38H510.641L510.641 1072.39C501.303 1072.78 493.851 1080.47 493.851 1089.9C493.851 1099.33 501.303 1107.02 510.641 1107.41L510.641 1107.42H504.801C514.477 1107.42 522.321 1115.26 522.321 1124.94C522.321 1134.62 514.477 1142.46 504.801 1142.46H452.241C442.565 1142.46 434.721 1134.62 434.721 1124.94C434.721 1115.26 442.565 1107.42 452.241 1107.42H446.401ZM577.8 1072.38C587.476 1072.38 595.32 1080.22 595.32 1089.9C595.32 1099.58 587.476 1107.42 577.8 1107.42C568.124 1107.42 560.28 1099.58 560.28 1089.9C560.28 1080.22 568.124 1072.38 577.8 1072.38ZM569.04 844.62C569.04 834.944 561.196 827.1 551.52 827.1H531.08C521.404 827.1 513.56 834.944 513.56 844.62C513.56 854.296 521.404 862.14 531.08 862.14H551.52C561.196 862.14 569.04 854.296 569.04 844.62ZM418.661 774.54C418.661 764.864 410.817 757.02 401.141 757.02H366.101C356.425 757.02 348.581 764.864 348.581 774.54C348.581 784.216 356.425 792.06 366.101 792.06H401.141C410.817 792.06 418.661 784.216 418.661 774.54ZM456.62 757.02C466.296 757.02 474.14 764.864 474.14 774.54C474.14 784.216 466.296 792.06 456.62 792.06H452.24C442.564 792.06 434.72 784.216 434.72 774.54C434.72 764.864 442.564 757.02 452.24 757.02H456.62Z" fill="#4FCDF9"/>
</g>
<mask id="mask2_328_2571" style="mask-type:luminance" maskUnits="userSpaceOnUse" x="-123" y="630" width="657" height="657">
<circle cx="205.5" cy="958.5" r="328.5" fill="white"/>
</mask>
<g mask="url(#mask2_328_2571)">
<path fill-rule="evenodd" clip-rule="evenodd" d="M325.22 704.46C325.22 694.784 317.376 686.94 307.7 686.94H132.5C122.824 686.94 114.98 679.096 114.98 669.42C114.98 659.744 122.824 651.9 132.5 651.9H204.04C213.716 651.9 221.56 644.056 221.56 634.38C221.56 624.704 213.716 616.86 204.04 616.86H180.68C171.004 616.86 163.16 609.016 163.16 599.34C163.16 589.664 171.004 581.82 180.68 581.82H271.2C280.876 581.82 288.72 589.664 288.72 599.34C288.72 609.016 280.876 616.86 271.2 616.86H274.12L274.121 616.875C264.783 617.257 257.33 624.948 257.33 634.38C257.33 643.812 264.783 651.502 274.121 651.885L274.12 651.9H507.72C517.396 651.9 525.24 659.744 525.24 669.42C525.24 679.096 517.396 686.94 507.72 686.94H408.44L408.439 686.955C399.102 687.338 391.65 695.029 391.65 704.46C391.65 713.891 399.102 721.581 408.439 721.965L408.44 721.98H412.82C422.496 721.98 430.34 729.824 430.34 739.5C430.34 749.176 422.496 757.02 412.82 757.02H301.86C292.184 757.02 284.34 749.176 284.34 739.5C284.34 729.824 292.184 721.98 301.86 721.98H307.7C317.376 721.98 325.22 714.136 325.22 704.46ZM479.98 792.06C489.656 792.06 497.5 799.904 497.5 809.58C497.5 819.256 489.656 827.1 479.98 827.1H389.46C379.784 827.1 371.94 819.256 371.94 809.58C371.94 799.904 379.784 792.06 389.46 792.06H479.98ZM529.62 739.5C529.62 729.824 521.776 721.98 512.1 721.98H482.9C473.224 721.98 465.38 729.824 465.38 739.5C465.38 749.176 473.224 757.02 482.9 757.02H512.1C521.776 757.02 529.62 749.176 529.62 739.5ZM231.78 721.98C241.456 721.98 249.3 729.824 249.3 739.5C249.3 749.176 241.456 757.02 231.78 757.02H202.58C192.904 757.02 185.06 749.176 185.06 739.5C185.06 729.824 192.904 721.98 202.58 721.98H231.78ZM586.56 599.34C586.56 589.664 578.716 581.82 569.04 581.82H341.28C331.604 581.82 323.76 589.664 323.76 599.34C323.76 609.016 331.604 616.86 341.28 616.86H569.04C578.716 616.86 586.56 609.016 586.56 599.34Z" fill="white"/>
</g>
<mask id="mask3_328_2571" style="mask-type:luminance" maskUnits="userSpaceOnUse" x="-123" y="630" width="657" height="657">
<circle cx="205.5" cy="958.5" r="328.5" fill="white"/>
</mask>
<g mask="url(#mask3_328_2571)">
<rect opacity="0.0775757" x="206.206" y="593.5" width="365.706" height="730" fill="black"/>
</g>
<path d="M225.148 95.4791C224.315 94.8651 223.298 94.5575 222.098 94.5575C220.897 94.5575 219.868 94.8651 219.01 95.4791C218.692 95.7252 218.434 95.9804 218.239 96.2469C218.141 96.1649 218.03 96.0933 217.907 96.0319C217.173 95.5813 216.291 95.3563 215.261 95.3563C214.233 95.3563 213.35 95.5813 212.616 96.0319C211.88 96.4826 211.513 97.025 211.513 97.6596C211.513 98.2947 211.88 98.8371 212.616 99.2873C213.35 99.7379 214.233 99.9629 215.261 99.9629C216.291 99.9629 217.173 99.7379 217.907 99.2873C218.006 99.2259 218.104 99.1642 218.202 99.1035C218.398 99.4103 218.667 99.6968 219.01 99.9629C219.868 100.577 220.897 100.884 222.098 100.884C223.298 100.884 224.315 100.577 225.148 99.9629C226.006 99.3487 226.434 98.6014 226.434 97.721C226.434 96.8406 226.006 96.0933 225.148 95.4791ZM215.96 101.836C215.568 102.164 215.372 102.564 215.372 103.035C215.372 103.505 215.568 103.905 215.96 104.232C216.352 104.559 216.83 104.724 217.393 104.724C217.957 104.724 218.434 104.559 218.826 104.232C219.218 103.905 219.414 103.505 219.414 103.035C219.414 102.564 219.218 102.164 218.826 101.836C218.434 101.509 217.957 101.345 217.393 101.345C216.83 101.345 216.352 101.509 215.96 101.836ZM189.976 49.5341C190.148 49.4113 190.233 49.2476 190.233 49.0429C190.233 48.8381 190.148 48.6638 189.976 48.5207C189.829 48.3977 189.633 48.3363 189.388 48.3363C189.143 48.3363 188.935 48.3977 188.763 48.5207C188.616 48.6638 188.543 48.8381 188.543 49.0429C188.543 49.2476 188.616 49.4113 188.763 49.5341C188.935 49.6775 189.143 49.749 189.388 49.749C189.633 49.749 189.829 49.6775 189.976 49.5341ZM197.804 44.3741C197.437 44.0673 196.996 43.9141 196.481 43.9141C195.966 43.9141 195.526 44.0673 195.158 44.3741C194.791 44.6816 194.607 45.0505 194.607 45.4801C194.607 45.9099 194.791 46.2788 195.158 46.5856C195.526 46.8931 195.966 47.0463 196.481 47.0463C196.996 47.0463 197.437 46.8931 197.804 46.5856C198.172 46.2788 198.355 45.9099 198.355 45.4801C198.355 45.0505 198.172 44.6816 197.804 44.3741ZM209.087 48.2132C208.327 47.7834 207.397 47.5687 206.294 47.5687C205.191 47.5687 204.248 47.7834 203.464 48.2132C202.704 48.6638 202.325 49.1964 202.325 49.8104C202.325 50.4247 202.704 50.9468 203.464 51.3767C204.248 51.8273 205.191 52.0523 206.294 52.0523C206.951 52.0523 207.539 51.9706 208.058 51.807C208.642 51.4014 209.23 51.0635 209.822 50.7928C210.116 50.5047 210.263 50.1768 210.263 49.8104C210.263 49.1964 209.871 48.6638 209.087 48.2132ZM240.915 87.2178C240.915 87.4631 241.025 87.678 241.245 87.8625C241.466 88.0469 241.723 88.1388 242.017 88.1388C242.311 88.1388 242.568 88.0469 242.788 87.8625C243.01 87.678 243.12 87.4631 243.12 87.2178C243.12 86.9719 243.01 86.757 242.788 86.5725C242.568 86.3881 242.311 86.2962 242.017 86.2962C241.723 86.2962 241.466 86.3881 241.245 86.5725C241.025 86.757 240.915 86.9719 240.915 87.2178ZM201.994 115.565C201.357 115.565 200.769 115.677 200.23 115.903C199.814 116.067 199.434 116.292 199.09 116.578C198.282 117.254 197.877 118.062 197.877 119.004C197.877 119.946 198.282 120.755 199.09 121.431C199.899 122.106 200.867 122.444 201.994 122.444C203.121 122.444 204.089 122.106 204.897 121.431C205.706 120.755 206.11 119.946 206.11 119.004C206.11 118.062 205.706 117.254 204.897 116.578C204.628 116.353 204.347 116.169 204.052 116.025C203.44 115.718 202.754 115.565 201.994 115.565Z" fill="#DDDBD9"/>
<path d="M241.245 87.8628C241.025 87.6783 240.915 87.4634 240.915 87.2181C240.915 86.9722 241.025 86.7573 241.245 86.5728C241.466 86.3884 241.723 86.2965 242.017 86.2965C242.311 86.2965 242.568 86.3884 242.788 86.5728C243.01 86.7573 243.12 86.9722 243.12 87.2181C243.12 87.4634 243.01 87.6783 242.788 87.8628C242.568 88.0472 242.311 88.1391 242.017 88.1391C241.723 88.1391 241.466 88.0472 241.245 87.8628ZM239.886 68.1455C240.007 67.8313 240.105 67.5238 240.179 67.2247C240.269 67.5961 240.355 67.9642 240.437 68.3299C240.267 68.2344 240.083 68.173 239.886 68.1455ZM227.537 58.9938C226.41 56.2295 224.56 55.6561 221.987 57.2741C220.762 58.3588 219.733 58.3588 218.9 57.2741C216.695 55.5541 216.328 53.5067 217.797 51.1316C214.87 49.9078 212.211 49.7956 209.822 50.7932C209.23 51.0638 208.642 51.4017 208.058 51.8073C207.703 52.0749 207.348 52.3715 206.992 52.6979C206.527 54.2129 205.24 54.6838 203.134 54.1106C205.878 59.2288 206.502 62.7099 205.008 64.5525C201.308 66.2727 199.654 68.1356 200.046 70.142C200.144 71.3706 199.213 72.4152 197.253 73.2746C191.177 58.7789 184.083 56.3013 175.974 65.8422C168.011 83.6961 175.668 94.804 198.944 99.1645C200.757 98.3868 202.264 96.2984 203.464 92.8997C205.596 93.0837 206.833 91.7836 207.176 88.9992C206.294 85.4161 205.057 82.7035 203.464 80.8609C201.627 79.161 202.031 77.7792 204.677 76.7143C205.706 76.08 205.706 74.8819 204.677 73.121C204.579 71.401 205.768 70.2651 208.242 69.7117C210.471 70.2651 212.53 69.0673 214.417 66.1187C214.637 68.5347 216.952 70.6848 221.363 72.5684C222.22 71.8314 222.894 72.2104 223.384 73.7049V76.0082L227.059 80.1541C230.269 80.7683 231.763 80.0927 231.543 78.1271C229.582 77.0008 227.635 74.9535 225.699 71.9846C224.009 68.5862 224.78 67.2552 228.015 67.9922L235.402 74.5645C237.428 76.1463 239.314 76.054 241.061 74.2879C241.084 76.3969 240.925 78.6081 240.583 80.9216C239.064 91.0364 235.01 99.247 228.419 105.553C221.828 111.839 214.109 115.309 205.265 115.964C204.849 115.985 204.444 116.006 204.052 116.026C204.347 116.169 204.628 116.353 204.897 116.578C205.706 117.254 206.11 118.063 206.11 119.005C206.11 119.947 205.706 120.755 204.897 121.431C204.089 122.107 203.121 122.445 201.994 122.445C200.867 122.445 199.899 122.107 199.09 121.431C198.282 120.755 197.877 119.947 197.877 119.005C197.877 118.063 198.282 117.254 199.09 116.578C199.434 116.292 199.814 116.067 200.23 115.903C193.222 115.227 186.534 112.105 180.163 106.536C172.249 99.6151 167.263 86.5931 165.205 67.4701C163.735 71.7496 163 76.336 163 81.2291C163 92.8997 167.19 102.85 175.569 111.081C183.973 119.332 194.117 123.458 206 123.458C217.883 123.458 228.015 119.332 236.394 111.081C244.798 102.85 249 92.8997 249 81.2291C249 69.5585 244.798 59.5977 236.394 51.3465C230.783 45.8183 224.376 42.1535 217.173 40.3516C223.053 44.8562 228.798 50.2101 234.409 56.4139C236.418 58.6351 237.974 61.1025 239.077 63.8154C237.752 62.85 236.429 62.8087 235.107 63.6923C234.471 63.3039 233.919 63.2011 233.454 63.3856L227.537 58.9938Z" fill="#DADEDD"/>
<path d="M196.481 43.9142C196.996 43.9142 197.437 44.0674 197.804 44.3742C198.171 44.6817 198.355 45.0506 198.355 45.4802C198.355 45.91 198.171 46.2789 197.804 46.5857C197.437 46.8932 196.996 47.0464 196.481 47.0464C195.966 47.0464 195.526 46.8932 195.158 46.5857C194.791 46.2789 194.607 45.91 194.607 45.4802C194.607 45.0506 194.791 44.6817 195.158 44.3742C195.526 44.0674 195.966 43.9142 196.481 43.9142ZM190.233 49.043C190.233 49.2477 190.148 49.4114 189.976 49.5342C189.829 49.6776 189.633 49.7491 189.388 49.7491C189.143 49.7491 188.935 49.6776 188.763 49.5342C188.616 49.4114 188.543 49.2477 188.543 49.043C188.543 48.8382 188.616 48.6639 188.763 48.5208C188.935 48.3978 189.143 48.3364 189.388 48.3364C189.633 48.3364 189.829 48.3978 189.976 48.5208C190.148 48.6639 190.233 48.8382 190.233 49.043ZM215.372 103.035C215.372 102.564 215.568 102.164 215.96 101.837C216.352 101.509 216.83 101.345 217.393 101.345C217.957 101.345 218.434 101.509 218.826 101.837C219.218 102.164 219.414 102.564 219.414 103.035C219.414 103.506 219.218 103.905 218.826 104.232C218.434 104.56 217.957 104.724 217.393 104.724C216.83 104.724 216.352 104.56 215.96 104.232C215.568 103.905 215.372 103.506 215.372 103.035ZM222.097 94.5576C223.298 94.5576 224.315 94.8651 225.148 95.4792C226.005 96.0934 226.434 96.8407 226.434 97.7211C226.434 98.6015 226.005 99.3487 225.148 99.963C224.315 100.577 223.298 100.885 222.097 100.885C220.897 100.885 219.868 100.577 219.01 99.963C218.667 99.6969 218.397 99.4104 218.201 99.1036C218.103 99.1643 218.005 99.2259 217.907 99.2873C217.172 99.738 216.29 99.963 215.261 99.963C214.232 99.963 213.35 99.738 212.615 99.2873C211.88 98.8372 211.513 98.2948 211.513 97.6597C211.513 97.0251 211.88 96.4826 212.615 96.032C213.35 95.5814 214.232 95.3564 215.261 95.3564C216.29 95.3564 217.172 95.5814 217.907 96.032C218.03 96.0934 218.14 96.165 218.239 96.2469C218.434 95.9805 218.692 95.7253 219.01 95.4792C219.868 94.8651 220.897 94.5576 222.097 94.5576ZM206.294 47.5688C207.396 47.5688 208.327 47.7835 209.087 48.2133C209.871 48.6639 210.263 49.1965 210.263 49.8105C210.263 50.1769 210.116 50.5047 209.822 50.7929C212.211 49.7954 214.869 49.9076 217.797 51.1314C216.327 53.5065 216.694 55.5538 218.9 57.2739C219.733 58.3585 220.762 58.3585 221.987 57.2739C224.559 55.6559 226.41 56.2293 227.537 58.9936L233.454 63.3854C233.919 63.2009 234.471 63.3036 235.107 63.6921C236.429 62.8085 237.752 62.8498 239.076 63.8152C237.974 61.1023 236.418 58.6349 234.409 56.4137C228.798 50.2099 223.053 44.856 217.172 40.3513C216.216 40.1055 215.261 39.9007 214.305 39.7371C211.635 39.2459 208.867 39 206 39C194.117 39 183.973 43.1154 175.569 51.3463C170.693 56.1374 167.238 61.5118 165.205 67.4698C167.263 86.5929 172.249 99.6149 180.163 106.536C186.534 112.105 193.222 115.227 200.23 115.903C200.769 115.678 201.357 115.565 201.994 115.565C202.753 115.565 203.44 115.718 204.052 116.025C204.444 116.005 204.849 115.984 205.265 115.964C214.109 115.309 221.828 111.838 228.419 105.553C235.009 99.2467 239.064 91.0362 240.583 80.9214C240.925 78.6079 241.084 76.3967 241.061 74.2877C239.314 76.0538 237.428 76.1461 235.402 74.5643L228.015 67.992C224.78 67.2549 224.008 68.586 225.699 71.9844C227.635 74.9532 229.582 77.0006 231.543 78.1268C231.763 80.0925 230.268 80.7681 227.059 80.1539L223.384 76.008V73.7046C222.894 72.2102 222.22 71.8311 221.362 72.5682C216.952 70.6845 214.637 68.5345 214.416 66.1185C212.53 69.067 210.471 70.2649 208.241 69.7115C205.767 70.2649 204.579 71.4008 204.677 73.1208C205.706 74.8817 205.706 76.0798 204.677 76.7141C202.031 77.779 201.626 79.1608 203.464 80.8607C205.057 82.7033 206.294 85.4159 207.176 88.999C206.833 91.7834 205.596 93.0835 203.464 92.8995C202.263 96.2982 200.757 98.3866 198.943 99.1643C175.667 94.8037 168.011 83.6959 175.973 65.8419C184.083 56.3011 191.177 58.7787 197.253 73.2743C199.213 72.4149 200.144 71.3704 200.046 70.1418C199.654 68.1354 201.308 66.2725 205.007 64.5522C206.502 62.7097 205.877 59.2286 203.134 54.1104C205.24 54.6836 206.526 54.2127 206.992 52.6977C207.348 52.3713 207.703 52.0747 208.058 51.8071C207.539 51.9707 206.951 52.0524 206.294 52.0524C205.191 52.0524 204.248 51.8274 203.464 51.3768C202.704 50.9469 202.325 50.4248 202.325 49.8105C202.325 49.1965 202.704 48.6639 203.464 48.2133C204.248 47.7835 205.191 47.5688 206.294 47.5688ZM240.179 67.2245C240.105 67.5236 240.007 67.8311 239.885 68.1453C240.083 68.1727 240.267 68.2341 240.437 68.3297C240.355 67.964 240.269 67.5959 240.179 67.2245Z" fill="#F7F7F7"/>
</g>
<defs>
<clipPath id="clip0_328_2571">
<rect width="412" height="917" fill="white"/>
</clipPath>
</defs>
</svg>
