<svg width="5803" height="3158" viewBox="0 0 5803 3158" fill="none" xmlns="http://www.w3.org/2000/svg">
<circle cx="24" cy="24" r="24" transform="matrix(-1 0 0 1 2992.5 1186)" fill="white" fill-opacity="0.5"/>
<ellipse cx="8" cy="56" rx="8" ry="56" transform="matrix(-1 0 0 1 2976.5 1154)" fill="white" fill-opacity="0.5"/>
<ellipse opacity="0.9" cx="2968.5" cy="1210" rx="8" ry="56" transform="rotate(-90 2968.5 1210)" fill="white" fill-opacity="0.5"/>
<circle cx="11.3571" cy="11.3571" r="11.3571" transform="matrix(-1 0 0 1 2158.86 1690.14)" fill="white" fill-opacity="0.5"/>
<ellipse cx="3.78571" cy="26.5" rx="3.78571" ry="26.5" transform="matrix(-1 0 0 1 2151.29 1675)" fill="white" fill-opacity="0.5"/>
<ellipse opacity="0.9" cx="2147.5" cy="1701.5" rx="3.78571" ry="26.5" transform="rotate(-90 2147.5 1701.5)" fill="white" fill-opacity="0.5"/>
<circle cx="11.3571" cy="11.3571" r="11.3571" transform="matrix(-1 0 0 1 3828.86 1452.14)" fill="white" fill-opacity="0.5"/>
<ellipse cx="3.78571" cy="26.5" rx="3.78571" ry="26.5" transform="matrix(-1 0 0 1 3821.29 1437)" fill="white" fill-opacity="0.5"/>
<ellipse opacity="0.9" cx="3817.5" cy="1463.5" rx="3.78571" ry="26.5" transform="rotate(-90 3817.5 1463.5)" fill="white" fill-opacity="0.5"/>
<circle cx="11.3571" cy="11.3571" r="11.3571" transform="matrix(-1 0 0 1 3508.86 2604.14)" fill="white" fill-opacity="0.5"/>
<ellipse cx="3.78571" cy="26.5" rx="3.78571" ry="26.5" transform="matrix(-1 0 0 1 3501.29 2589)" fill="white" fill-opacity="0.5"/>
<ellipse opacity="0.9" cx="3497.5" cy="2615.5" rx="3.78571" ry="26.5" transform="rotate(-90 3497.5 2615.5)" fill="white" fill-opacity="0.5"/>
<circle cx="11.3571" cy="11.3571" r="11.3571" transform="matrix(-1 0 0 1 1074.86 903.143)" fill="white" fill-opacity="0.5"/>
<ellipse cx="3.78571" cy="26.5" rx="3.78571" ry="26.5" transform="matrix(-1 0 0 1 1067.29 888)" fill="white" fill-opacity="0.5"/>
<ellipse opacity="0.9" cx="1063.5" cy="914.5" rx="3.78571" ry="26.5" transform="rotate(-90 1063.5 914.5)" fill="white" fill-opacity="0.5"/>
<circle cx="11.3571" cy="11.3571" r="11.3571" transform="matrix(-1 0 0 1 5423.86 850.143)" fill="white" fill-opacity="0.5"/>
<ellipse cx="3.78571" cy="26.5" rx="3.78571" ry="26.5" transform="matrix(-1 0 0 1 5416.29 835)" fill="white" fill-opacity="0.5"/>
<ellipse opacity="0.9" cx="5412.5" cy="861.5" rx="3.78571" ry="26.5" transform="rotate(-90 5412.5 861.5)" fill="white" fill-opacity="0.5"/>
<circle cx="11.3571" cy="11.3571" r="11.3571" transform="matrix(-1 0 0 1 2671.86 207.143)" fill="white" fill-opacity="0.5"/>
<ellipse cx="3.78571" cy="26.5" rx="3.78571" ry="26.5" transform="matrix(-1 0 0 1 2664.29 192)" fill="white" fill-opacity="0.5"/>
<ellipse opacity="0.9" cx="2660.5" cy="218.5" rx="3.78571" ry="26.5" transform="rotate(-90 2660.5 218.5)" fill="white" fill-opacity="0.5"/>
<circle cx="24" cy="24" r="24" transform="matrix(-1 0 0 1 4397 1932)" fill="white" fill-opacity="0.5"/>
<ellipse cx="8" cy="56" rx="8" ry="56" transform="matrix(-1 0 0 1 4381 1900)" fill="white" fill-opacity="0.5"/>
<ellipse opacity="0.9" cx="4373" cy="1956" rx="8" ry="56" transform="rotate(-90 4373 1956)" fill="white" fill-opacity="0.5"/>
<circle cx="24" cy="24" r="24" transform="matrix(-1 0 0 1 4248 64)" fill="white" fill-opacity="0.5"/>
<ellipse cx="8" cy="56" rx="8" ry="56" transform="matrix(-1 0 0 1 4232 32)" fill="white" fill-opacity="0.5"/>
<ellipse opacity="0.9" cx="4224" cy="88" rx="8" ry="56" transform="rotate(-90 4224 88)" fill="white" fill-opacity="0.5"/>
<circle cx="24" cy="24" r="24" transform="matrix(-1 0 0 1 1398 213)" fill="white" fill-opacity="0.5"/>
<ellipse cx="8" cy="56" rx="8" ry="56" transform="matrix(-1 0 0 1 1382 181)" fill="white" fill-opacity="0.5"/>
<ellipse opacity="0.9" cx="1374" cy="237" rx="8" ry="56" transform="rotate(-90 1374 237)" fill="white" fill-opacity="0.5"/>
<circle cx="24" cy="24" r="24" transform="matrix(-1 0 0 1 80 1106)" fill="white" fill-opacity="0.5"/>
<ellipse cx="8" cy="56" rx="8" ry="56" transform="matrix(-1 0 0 1 64 1074)" fill="white" fill-opacity="0.5"/>
<ellipse opacity="0.9" cx="56" cy="1130" rx="8" ry="56" transform="rotate(-90 56 1130)" fill="white" fill-opacity="0.5"/>
<circle cx="24" cy="24" r="24" transform="matrix(-1 0 0 1 5745 269)" fill="white" fill-opacity="0.5"/>
<ellipse cx="8" cy="56" rx="8" ry="56" transform="matrix(-1 0 0 1 5729 237)" fill="white" fill-opacity="0.5"/>
<ellipse opacity="0.9" cx="5721" cy="293" rx="8" ry="56" transform="rotate(-90 5721 293)" fill="white" fill-opacity="0.5"/>
<circle cx="11.3571" cy="11.3571" r="11.3571" transform="matrix(-1 0 0 1 5423.86 850.143)" fill="white" fill-opacity="0.5"/>
<ellipse cx="3.78571" cy="26.5" rx="3.78571" ry="26.5" transform="matrix(-1 0 0 1 5416.29 835)" fill="white" fill-opacity="0.5"/>
<ellipse opacity="0.9" cx="5412.5" cy="861.5" rx="3.78571" ry="26.5" transform="rotate(-90 5412.5 861.5)" fill="white" fill-opacity="0.5"/>
<circle cx="11.3571" cy="11.3571" r="11.3571" transform="matrix(-1 0 0 1 1074.86 903.143)" fill="white" fill-opacity="0.5"/>
<ellipse cx="3.78571" cy="26.5" rx="3.78571" ry="26.5" transform="matrix(-1 0 0 1 1067.29 888)" fill="white" fill-opacity="0.5"/>
<ellipse opacity="0.9" cx="1063.5" cy="914.5" rx="3.78571" ry="26.5" transform="rotate(-90 1063.5 914.5)" fill="white" fill-opacity="0.5"/>
<circle cx="24" cy="24" r="24" transform="matrix(-1 0 0 1 80 1106)" fill="white" fill-opacity="0.5"/>
<ellipse cx="8" cy="56" rx="8" ry="56" transform="matrix(-1 0 0 1 64 1074)" fill="white" fill-opacity="0.5"/>
<ellipse opacity="0.9" cx="56" cy="1130" rx="8" ry="56" transform="rotate(-90 56 1130)" fill="white" fill-opacity="0.5"/>
<circle cx="24" cy="24" r="24" transform="matrix(-1 0 0 1 2992.5 1186)" fill="white" fill-opacity="0.5"/>
<ellipse cx="8" cy="56" rx="8" ry="56" transform="matrix(-1 0 0 1 2976.5 1154)" fill="white" fill-opacity="0.5"/>
<ellipse opacity="0.9" cx="2968.5" cy="1210" rx="8" ry="56" transform="rotate(-90 2968.5 1210)" fill="white" fill-opacity="0.5"/>
<circle cx="11.3571" cy="11.3571" r="11.3571" transform="matrix(-1 0 0 1 3828.86 1452.14)" fill="white" fill-opacity="0.5"/>
<ellipse cx="3.78571" cy="26.5" rx="3.78571" ry="26.5" transform="matrix(-1 0 0 1 3821.29 1437)" fill="white" fill-opacity="0.5"/>
<ellipse opacity="0.9" cx="3817.5" cy="1463.5" rx="3.78571" ry="26.5" transform="rotate(-90 3817.5 1463.5)" fill="white" fill-opacity="0.5"/>
<circle cx="24" cy="24" r="24" transform="matrix(-1 0 0 1 4248 64)" fill="white" fill-opacity="0.5"/>
<ellipse cx="8" cy="56" rx="8" ry="56" transform="matrix(-1 0 0 1 4232 32)" fill="white" fill-opacity="0.5"/>
<ellipse opacity="0.9" cx="4224" cy="88" rx="8" ry="56" transform="rotate(-90 4224 88)" fill="white" fill-opacity="0.5"/>
<circle cx="24" cy="24" r="24" transform="matrix(-1 0 0 1 1398 213)" fill="white" fill-opacity="0.5"/>
<ellipse cx="8" cy="56" rx="8" ry="56" transform="matrix(-1 0 0 1 1382 181)" fill="white" fill-opacity="0.5"/>
<ellipse opacity="0.9" cx="1374" cy="237" rx="8" ry="56" transform="rotate(-90 1374 237)" fill="white" fill-opacity="0.5"/>
<circle cx="11.3571" cy="11.3571" r="11.3571" transform="matrix(-1 0 0 1 2671.86 207.143)" fill="white" fill-opacity="0.5"/>
<ellipse cx="3.78571" cy="26.5" rx="3.78571" ry="26.5" transform="matrix(-1 0 0 1 2664.29 192)" fill="white" fill-opacity="0.5"/>
<ellipse opacity="0.9" cx="2660.5" cy="218.5" rx="3.78571" ry="26.5" transform="rotate(-90 2660.5 218.5)" fill="white" fill-opacity="0.5"/>
<circle cx="24" cy="24" r="24" transform="matrix(-1 0 0 1 5745 269)" fill="white" fill-opacity="0.5"/>
<ellipse cx="8" cy="56" rx="8" ry="56" transform="matrix(-1 0 0 1 5729 237)" fill="white" fill-opacity="0.5"/>
<ellipse opacity="0.9" cx="5721" cy="293" rx="8" ry="56" transform="rotate(-90 5721 293)" fill="white" fill-opacity="0.5"/>
<circle cx="11.3571" cy="11.3571" r="11.3571" transform="matrix(-1 0 0 1 5423.86 850.143)" fill="white" fill-opacity="0.5"/>
<ellipse cx="3.78571" cy="26.5" rx="3.78571" ry="26.5" transform="matrix(-1 0 0 1 5416.29 835)" fill="white" fill-opacity="0.5"/>
<ellipse opacity="0.9" cx="5412.5" cy="861.5" rx="3.78571" ry="26.5" transform="rotate(-90 5412.5 861.5)" fill="white" fill-opacity="0.5"/>
<circle cx="11.3571" cy="11.3571" r="11.3571" transform="matrix(-1 0 0 1 5423.86 850.143)" fill="white" fill-opacity="0.5"/>
<ellipse cx="3.78571" cy="26.5" rx="3.78571" ry="26.5" transform="matrix(-1 0 0 1 5416.29 835)" fill="white" fill-opacity="0.5"/>
<ellipse opacity="0.9" cx="5412.5" cy="861.5" rx="3.78571" ry="26.5" transform="rotate(-90 5412.5 861.5)" fill="white" fill-opacity="0.5"/>
<circle cx="11.3571" cy="11.3571" r="11.3571" transform="matrix(-1 0 0 1 1074.86 903.143)" fill="white" fill-opacity="0.5"/>
<ellipse cx="3.78571" cy="26.5" rx="3.78571" ry="26.5" transform="matrix(-1 0 0 1 1067.29 888)" fill="white" fill-opacity="0.5"/>
<ellipse opacity="0.9" cx="1063.5" cy="914.5" rx="3.78571" ry="26.5" transform="rotate(-90 1063.5 914.5)" fill="white" fill-opacity="0.5"/>
<circle cx="11.3571" cy="11.3571" r="11.3571" transform="matrix(-1 0 0 1 1074.86 903.143)" fill="white" fill-opacity="0.5"/>
<ellipse cx="3.78571" cy="26.5" rx="3.78571" ry="26.5" transform="matrix(-1 0 0 1 1067.29 888)" fill="white" fill-opacity="0.5"/>
<ellipse opacity="0.9" cx="1063.5" cy="914.5" rx="3.78571" ry="26.5" transform="rotate(-90 1063.5 914.5)" fill="white" fill-opacity="0.5"/>
<circle cx="24" cy="24" r="24" transform="matrix(-1 0 0 1 80 1106)" fill="white" fill-opacity="0.5"/>
<ellipse cx="8" cy="56" rx="8" ry="56" transform="matrix(-1 0 0 1 64 1074)" fill="white" fill-opacity="0.5"/>
<ellipse opacity="0.9" cx="56" cy="1130" rx="8" ry="56" transform="rotate(-90 56 1130)" fill="white" fill-opacity="0.5"/>
<circle cx="24" cy="24" r="24" transform="matrix(-1 0 0 1 80 1106)" fill="white" fill-opacity="0.5"/>
<ellipse cx="8" cy="56" rx="8" ry="56" transform="matrix(-1 0 0 1 64 1074)" fill="white" fill-opacity="0.5"/>
<ellipse opacity="0.9" cx="56" cy="1130" rx="8" ry="56" transform="rotate(-90 56 1130)" fill="white" fill-opacity="0.5"/>
<circle cx="24" cy="24" r="24" transform="matrix(-1 0 0 1 2992.5 1186)" fill="white" fill-opacity="0.5"/>
<ellipse cx="8" cy="56" rx="8" ry="56" transform="matrix(-1 0 0 1 2976.5 1154)" fill="white" fill-opacity="0.5"/>
<ellipse opacity="0.9" cx="2968.5" cy="1210" rx="8" ry="56" transform="rotate(-90 2968.5 1210)" fill="white" fill-opacity="0.5"/>
<circle cx="24" cy="24" r="24" transform="matrix(-1 0 0 1 2992.5 1186)" fill="white" fill-opacity="0.5"/>
<ellipse cx="8" cy="56" rx="8" ry="56" transform="matrix(-1 0 0 1 2976.5 1154)" fill="white" fill-opacity="0.5"/>
<ellipse opacity="0.9" cx="2968.5" cy="1210" rx="8" ry="56" transform="rotate(-90 2968.5 1210)" fill="white" fill-opacity="0.5"/>
<circle cx="11.3571" cy="11.3571" r="11.3571" transform="matrix(-1 0 0 1 3828.86 1452.14)" fill="white" fill-opacity="0.5"/>
<ellipse cx="3.78571" cy="26.5" rx="3.78571" ry="26.5" transform="matrix(-1 0 0 1 3821.29 1437)" fill="white" fill-opacity="0.5"/>
<ellipse opacity="0.9" cx="3817.5" cy="1463.5" rx="3.78571" ry="26.5" transform="rotate(-90 3817.5 1463.5)" fill="white" fill-opacity="0.5"/>
<circle cx="11.3571" cy="11.3571" r="11.3571" transform="matrix(-1 0 0 1 3828.86 1452.14)" fill="white" fill-opacity="0.5"/>
<ellipse cx="3.78571" cy="26.5" rx="3.78571" ry="26.5" transform="matrix(-1 0 0 1 3821.29 1437)" fill="white" fill-opacity="0.5"/>
<ellipse opacity="0.9" cx="3817.5" cy="1463.5" rx="3.78571" ry="26.5" transform="rotate(-90 3817.5 1463.5)" fill="white" fill-opacity="0.5"/>
<circle cx="11.3571" cy="11.3571" r="11.3571" transform="matrix(-1 0 0 1 2158.86 1690.14)" fill="white" fill-opacity="0.5"/>
<ellipse cx="3.78571" cy="26.5" rx="3.78571" ry="26.5" transform="matrix(-1 0 0 1 2151.29 1675)" fill="white" fill-opacity="0.5"/>
<ellipse opacity="0.9" cx="2147.5" cy="1701.5" rx="3.78571" ry="26.5" transform="rotate(-90 2147.5 1701.5)" fill="white" fill-opacity="0.5"/>
<circle cx="24" cy="24" r="24" transform="matrix(-1 0 0 1 4397 1932)" fill="white" fill-opacity="0.5"/>
<ellipse cx="8" cy="56" rx="8" ry="56" transform="matrix(-1 0 0 1 4381 1900)" fill="white" fill-opacity="0.5"/>
<ellipse opacity="0.9" cx="4373" cy="1956" rx="8" ry="56" transform="rotate(-90 4373 1956)" fill="white" fill-opacity="0.5"/>
<circle cx="11.3571" cy="11.3571" r="11.3571" transform="matrix(-1 0 0 1 3508.86 2604.14)" fill="white" fill-opacity="0.5"/>
<ellipse cx="3.78571" cy="26.5" rx="3.78571" ry="26.5" transform="matrix(-1 0 0 1 3501.29 2589)" fill="white" fill-opacity="0.5"/>
<ellipse opacity="0.9" cx="3497.5" cy="2615.5" rx="3.78571" ry="26.5" transform="rotate(-90 3497.5 2615.5)" fill="white" fill-opacity="0.5"/>
<circle cx="24" cy="24" r="24" transform="matrix(-1 0 0 1 3018.5 1154)" fill="white" fill-opacity="0.5"/>
<ellipse cx="8" cy="56" rx="8" ry="56" transform="matrix(-1 0 0 1 3002.5 1122)" fill="white" fill-opacity="0.5"/>
<ellipse opacity="0.9" cx="2994.5" cy="1178" rx="8" ry="56" transform="rotate(-90 2994.5 1178)" fill="white" fill-opacity="0.5"/>
<circle cx="11.3571" cy="11.3571" r="11.3571" transform="matrix(-1 0 0 1 2184.86 1658.14)" fill="white" fill-opacity="0.5"/>
<ellipse cx="3.78571" cy="26.5" rx="3.78571" ry="26.5" transform="matrix(-1 0 0 1 2177.29 1643)" fill="white" fill-opacity="0.5"/>
<ellipse opacity="0.9" cx="2173.5" cy="1669.5" rx="3.78571" ry="26.5" transform="rotate(-90 2173.5 1669.5)" fill="white" fill-opacity="0.5"/>
<circle cx="11.3571" cy="11.3571" r="11.3571" transform="matrix(-1 0 0 1 3854.86 1420.14)" fill="white" fill-opacity="0.5"/>
<ellipse cx="3.78571" cy="26.5" rx="3.78571" ry="26.5" transform="matrix(-1 0 0 1 3847.29 1405)" fill="white" fill-opacity="0.5"/>
<ellipse opacity="0.9" cx="3843.5" cy="1431.5" rx="3.78571" ry="26.5" transform="rotate(-90 3843.5 1431.5)" fill="white" fill-opacity="0.5"/>
<circle cx="11.3571" cy="11.3571" r="11.3571" transform="matrix(-1 0 0 1 3534.86 2572.14)" fill="white" fill-opacity="0.5"/>
<ellipse cx="3.78571" cy="26.5" rx="3.78571" ry="26.5" transform="matrix(-1 0 0 1 3527.29 2557)" fill="white" fill-opacity="0.5"/>
<ellipse opacity="0.9" cx="3523.5" cy="2583.5" rx="3.78571" ry="26.5" transform="rotate(-90 3523.5 2583.5)" fill="white" fill-opacity="0.5"/>
<circle cx="11.3571" cy="11.3571" r="11.3571" transform="matrix(-1 0 0 1 1100.86 871.143)" fill="white" fill-opacity="0.5"/>
<ellipse cx="3.78571" cy="26.5" rx="3.78571" ry="26.5" transform="matrix(-1 0 0 1 1093.29 856)" fill="white" fill-opacity="0.5"/>
<ellipse opacity="0.9" cx="1089.5" cy="882.5" rx="3.78571" ry="26.5" transform="rotate(-90 1089.5 882.5)" fill="white" fill-opacity="0.5"/>
<circle cx="11.3571" cy="11.3571" r="11.3571" transform="matrix(-1 0 0 1 5449.86 818.143)" fill="white" fill-opacity="0.5"/>
<ellipse cx="3.78571" cy="26.5" rx="3.78571" ry="26.5" transform="matrix(-1 0 0 1 5442.29 803)" fill="white" fill-opacity="0.5"/>
<ellipse opacity="0.9" cx="5438.5" cy="829.5" rx="3.78571" ry="26.5" transform="rotate(-90 5438.5 829.5)" fill="white" fill-opacity="0.5"/>
<circle cx="11.3571" cy="11.3571" r="11.3571" transform="matrix(-1 0 0 1 2697.86 175.143)" fill="white" fill-opacity="0.5"/>
<ellipse cx="3.78571" cy="26.5" rx="3.78571" ry="26.5" transform="matrix(-1 0 0 1 2690.29 160)" fill="white" fill-opacity="0.5"/>
<ellipse opacity="0.9" cx="2686.5" cy="186.5" rx="3.78571" ry="26.5" transform="rotate(-90 2686.5 186.5)" fill="white" fill-opacity="0.5"/>
<circle cx="24" cy="24" r="24" transform="matrix(-1 0 0 1 4423 1900)" fill="white" fill-opacity="0.5"/>
<ellipse cx="8" cy="56" rx="8" ry="56" transform="matrix(-1 0 0 1 4407 1868)" fill="white" fill-opacity="0.5"/>
<ellipse opacity="0.9" cx="4399" cy="1924" rx="8" ry="56" transform="rotate(-90 4399 1924)" fill="white" fill-opacity="0.5"/>
<circle cx="24" cy="24" r="24" transform="matrix(-1 0 0 1 4274 32)" fill="white" fill-opacity="0.5"/>
<ellipse cx="8" cy="56" rx="8" ry="56" transform="matrix(-1 0 0 1 4258 0)" fill="white" fill-opacity="0.5"/>
<ellipse opacity="0.9" cx="4250" cy="56" rx="8" ry="56" transform="rotate(-90 4250 56)" fill="white" fill-opacity="0.5"/>
<circle cx="24" cy="24" r="24" transform="matrix(-1 0 0 1 1424 181)" fill="white" fill-opacity="0.5"/>
<ellipse cx="8" cy="56" rx="8" ry="56" transform="matrix(-1 0 0 1 1408 149)" fill="white" fill-opacity="0.5"/>
<ellipse opacity="0.9" cx="1400" cy="205" rx="8" ry="56" transform="rotate(-90 1400 205)" fill="white" fill-opacity="0.5"/>
<circle cx="24" cy="24" r="24" transform="matrix(-1 0 0 1 911 2779)" fill="white" fill-opacity="0.5"/>
<ellipse cx="8" cy="56" rx="8" ry="56" transform="matrix(-1 0 0 1 895 2747)" fill="white" fill-opacity="0.5"/>
<ellipse opacity="0.9" cx="887" cy="2803" rx="8" ry="56" transform="rotate(-90 887 2803)" fill="white" fill-opacity="0.5"/>
<circle cx="24" cy="24" r="24" transform="matrix(-1 0 0 1 4535 3078)" fill="white" fill-opacity="0.5"/>
<ellipse cx="8" cy="56" rx="8" ry="56" transform="matrix(-1 0 0 1 4519 3046)" fill="white" fill-opacity="0.5"/>
<ellipse opacity="0.9" cx="4511" cy="3102" rx="8" ry="56" transform="rotate(-90 4511 3102)" fill="white" fill-opacity="0.5"/>
<circle cx="24" cy="24" r="24" transform="matrix(-1 0 0 1 106 1074)" fill="white" fill-opacity="0.5"/>
<ellipse cx="8" cy="56" rx="8" ry="56" transform="matrix(-1 0 0 1 90 1042)" fill="white" fill-opacity="0.5"/>
<ellipse opacity="0.9" cx="82" cy="1098" rx="8" ry="56" transform="rotate(-90 82 1098)" fill="white" fill-opacity="0.5"/>
<circle cx="24" cy="24" r="24" transform="matrix(-1 0 0 1 5771 237)" fill="white" fill-opacity="0.5"/>
<ellipse cx="8" cy="56" rx="8" ry="56" transform="matrix(-1 0 0 1 5755 205)" fill="white" fill-opacity="0.5"/>
<ellipse opacity="0.9" cx="5747" cy="261" rx="8" ry="56" transform="rotate(-90 5747 261)" fill="white" fill-opacity="0.5"/>
<circle cx="11.3571" cy="11.3571" r="11.3571" transform="matrix(-1 0 0 1 5449.86 818.143)" fill="white" fill-opacity="0.5"/>
<ellipse cx="3.78571" cy="26.5" rx="3.78571" ry="26.5" transform="matrix(-1 0 0 1 5442.29 803)" fill="white" fill-opacity="0.5"/>
<ellipse opacity="0.9" cx="5438.5" cy="829.5" rx="3.78571" ry="26.5" transform="rotate(-90 5438.5 829.5)" fill="white" fill-opacity="0.5"/>
<circle cx="11.3571" cy="11.3571" r="11.3571" transform="matrix(-1 0 0 1 1100.86 871.143)" fill="white" fill-opacity="0.5"/>
<ellipse cx="3.78571" cy="26.5" rx="3.78571" ry="26.5" transform="matrix(-1 0 0 1 1093.29 856)" fill="white" fill-opacity="0.5"/>
<ellipse opacity="0.9" cx="1089.5" cy="882.5" rx="3.78571" ry="26.5" transform="rotate(-90 1089.5 882.5)" fill="white" fill-opacity="0.5"/>
<circle cx="24" cy="24" r="24" transform="matrix(-1 0 0 1 106 1074)" fill="white" fill-opacity="0.5"/>
<ellipse cx="8" cy="56" rx="8" ry="56" transform="matrix(-1 0 0 1 90 1042)" fill="white" fill-opacity="0.5"/>
<ellipse opacity="0.9" cx="82" cy="1098" rx="8" ry="56" transform="rotate(-90 82 1098)" fill="white" fill-opacity="0.5"/>
<circle cx="24" cy="24" r="24" transform="matrix(-1 0 0 1 3018.5 1154)" fill="white" fill-opacity="0.5"/>
<ellipse cx="8" cy="56" rx="8" ry="56" transform="matrix(-1 0 0 1 3002.5 1122)" fill="white" fill-opacity="0.5"/>
<ellipse opacity="0.9" cx="2994.5" cy="1178" rx="8" ry="56" transform="rotate(-90 2994.5 1178)" fill="white" fill-opacity="0.5"/>
<circle cx="11.3571" cy="11.3571" r="11.3571" transform="matrix(-1 0 0 1 3854.86 1420.14)" fill="white" fill-opacity="0.5"/>
<ellipse cx="3.78571" cy="26.5" rx="3.78571" ry="26.5" transform="matrix(-1 0 0 1 3847.29 1405)" fill="white" fill-opacity="0.5"/>
<ellipse opacity="0.9" cx="3843.5" cy="1431.5" rx="3.78571" ry="26.5" transform="rotate(-90 3843.5 1431.5)" fill="white" fill-opacity="0.5"/>
<circle cx="24" cy="24" r="24" transform="matrix(-1 0 0 1 4274 32)" fill="white" fill-opacity="0.5"/>
<ellipse cx="8" cy="56" rx="8" ry="56" transform="matrix(-1 0 0 1 4258 0)" fill="white" fill-opacity="0.5"/>
<ellipse opacity="0.9" cx="4250" cy="56" rx="8" ry="56" transform="rotate(-90 4250 56)" fill="white" fill-opacity="0.5"/>
<circle cx="24" cy="24" r="24" transform="matrix(-1 0 0 1 1424 181)" fill="white" fill-opacity="0.5"/>
<ellipse cx="8" cy="56" rx="8" ry="56" transform="matrix(-1 0 0 1 1408 149)" fill="white" fill-opacity="0.5"/>
<ellipse opacity="0.9" cx="1400" cy="205" rx="8" ry="56" transform="rotate(-90 1400 205)" fill="white" fill-opacity="0.5"/>
<circle cx="11.3571" cy="11.3571" r="11.3571" transform="matrix(-1 0 0 1 2697.86 175.143)" fill="white" fill-opacity="0.5"/>
<ellipse cx="3.78571" cy="26.5" rx="3.78571" ry="26.5" transform="matrix(-1 0 0 1 2690.29 160)" fill="white" fill-opacity="0.5"/>
<ellipse opacity="0.9" cx="2686.5" cy="186.5" rx="3.78571" ry="26.5" transform="rotate(-90 2686.5 186.5)" fill="white" fill-opacity="0.5"/>
<circle cx="24" cy="24" r="24" transform="matrix(-1 0 0 1 5771 237)" fill="white" fill-opacity="0.5"/>
<ellipse cx="8" cy="56" rx="8" ry="56" transform="matrix(-1 0 0 1 5755 205)" fill="white" fill-opacity="0.5"/>
<ellipse opacity="0.9" cx="5747" cy="261" rx="8" ry="56" transform="rotate(-90 5747 261)" fill="white" fill-opacity="0.5"/>
<circle cx="11.3571" cy="11.3571" r="11.3571" transform="matrix(-1 0 0 1 5449.86 818.143)" fill="white" fill-opacity="0.5"/>
<ellipse cx="3.78571" cy="26.5" rx="3.78571" ry="26.5" transform="matrix(-1 0 0 1 5442.29 803)" fill="white" fill-opacity="0.5"/>
<ellipse opacity="0.9" cx="5438.5" cy="829.5" rx="3.78571" ry="26.5" transform="rotate(-90 5438.5 829.5)" fill="white" fill-opacity="0.5"/>
<circle cx="11.3571" cy="11.3571" r="11.3571" transform="matrix(-1 0 0 1 5449.86 818.143)" fill="white" fill-opacity="0.5"/>
<ellipse cx="3.78571" cy="26.5" rx="3.78571" ry="26.5" transform="matrix(-1 0 0 1 5442.29 803)" fill="white" fill-opacity="0.5"/>
<ellipse opacity="0.9" cx="5438.5" cy="829.5" rx="3.78571" ry="26.5" transform="rotate(-90 5438.5 829.5)" fill="white" fill-opacity="0.5"/>
<circle cx="11.3571" cy="11.3571" r="11.3571" transform="matrix(-1 0 0 1 1100.86 871.143)" fill="white" fill-opacity="0.5"/>
<ellipse cx="3.78571" cy="26.5" rx="3.78571" ry="26.5" transform="matrix(-1 0 0 1 1093.29 856)" fill="white" fill-opacity="0.5"/>
<ellipse opacity="0.9" cx="1089.5" cy="882.5" rx="3.78571" ry="26.5" transform="rotate(-90 1089.5 882.5)" fill="white" fill-opacity="0.5"/>
<circle cx="11.3571" cy="11.3571" r="11.3571" transform="matrix(-1 0 0 1 1100.86 871.143)" fill="white" fill-opacity="0.5"/>
<ellipse cx="3.78571" cy="26.5" rx="3.78571" ry="26.5" transform="matrix(-1 0 0 1 1093.29 856)" fill="white" fill-opacity="0.5"/>
<ellipse opacity="0.9" cx="1089.5" cy="882.5" rx="3.78571" ry="26.5" transform="rotate(-90 1089.5 882.5)" fill="white" fill-opacity="0.5"/>
<circle cx="24" cy="24" r="24" transform="matrix(-1 0 0 1 106 1074)" fill="white" fill-opacity="0.5"/>
<ellipse cx="8" cy="56" rx="8" ry="56" transform="matrix(-1 0 0 1 90 1042)" fill="white" fill-opacity="0.5"/>
<ellipse opacity="0.9" cx="82" cy="1098" rx="8" ry="56" transform="rotate(-90 82 1098)" fill="white" fill-opacity="0.5"/>
<circle cx="24" cy="24" r="24" transform="matrix(-1 0 0 1 106 1074)" fill="white" fill-opacity="0.5"/>
<ellipse cx="8" cy="56" rx="8" ry="56" transform="matrix(-1 0 0 1 90 1042)" fill="white" fill-opacity="0.5"/>
<ellipse opacity="0.9" cx="82" cy="1098" rx="8" ry="56" transform="rotate(-90 82 1098)" fill="white" fill-opacity="0.5"/>
<circle cx="24" cy="24" r="24" transform="matrix(-1 0 0 1 3018.5 1154)" fill="white" fill-opacity="0.5"/>
<ellipse cx="8" cy="56" rx="8" ry="56" transform="matrix(-1 0 0 1 3002.5 1122)" fill="white" fill-opacity="0.5"/>
<ellipse opacity="0.9" cx="2994.5" cy="1178" rx="8" ry="56" transform="rotate(-90 2994.5 1178)" fill="white" fill-opacity="0.5"/>
<circle cx="24" cy="24" r="24" transform="matrix(-1 0 0 1 3018.5 1154)" fill="white" fill-opacity="0.5"/>
<ellipse cx="8" cy="56" rx="8" ry="56" transform="matrix(-1 0 0 1 3002.5 1122)" fill="white" fill-opacity="0.5"/>
<ellipse opacity="0.9" cx="2994.5" cy="1178" rx="8" ry="56" transform="rotate(-90 2994.5 1178)" fill="white" fill-opacity="0.5"/>
<circle cx="11.3571" cy="11.3571" r="11.3571" transform="matrix(-1 0 0 1 3854.86 1420.14)" fill="white" fill-opacity="0.5"/>
<ellipse cx="3.78571" cy="26.5" rx="3.78571" ry="26.5" transform="matrix(-1 0 0 1 3847.29 1405)" fill="white" fill-opacity="0.5"/>
<ellipse opacity="0.9" cx="3843.5" cy="1431.5" rx="3.78571" ry="26.5" transform="rotate(-90 3843.5 1431.5)" fill="white" fill-opacity="0.5"/>
<circle cx="11.3571" cy="11.3571" r="11.3571" transform="matrix(-1 0 0 1 3854.86 1420.14)" fill="white" fill-opacity="0.5"/>
<ellipse cx="3.78571" cy="26.5" rx="3.78571" ry="26.5" transform="matrix(-1 0 0 1 3847.29 1405)" fill="white" fill-opacity="0.5"/>
<ellipse opacity="0.9" cx="3843.5" cy="1431.5" rx="3.78571" ry="26.5" transform="rotate(-90 3843.5 1431.5)" fill="white" fill-opacity="0.5"/>
<circle cx="11.3571" cy="11.3571" r="11.3571" transform="matrix(-1 0 0 1 2184.86 1658.14)" fill="white" fill-opacity="0.5"/>
<ellipse cx="3.78571" cy="26.5" rx="3.78571" ry="26.5" transform="matrix(-1 0 0 1 2177.29 1643)" fill="white" fill-opacity="0.5"/>
<ellipse opacity="0.9" cx="2173.5" cy="1669.5" rx="3.78571" ry="26.5" transform="rotate(-90 2173.5 1669.5)" fill="white" fill-opacity="0.5"/>
<circle cx="24" cy="24" r="24" transform="matrix(-1 0 0 1 4423 1900)" fill="white" fill-opacity="0.5"/>
<ellipse cx="8" cy="56" rx="8" ry="56" transform="matrix(-1 0 0 1 4407 1868)" fill="white" fill-opacity="0.5"/>
<ellipse opacity="0.9" cx="4399" cy="1924" rx="8" ry="56" transform="rotate(-90 4399 1924)" fill="white" fill-opacity="0.5"/>
<circle cx="11.3571" cy="11.3571" r="11.3571" transform="matrix(-1 0 0 1 3534.86 2572.14)" fill="white" fill-opacity="0.5"/>
<ellipse cx="3.78571" cy="26.5" rx="3.78571" ry="26.5" transform="matrix(-1 0 0 1 3527.29 2557)" fill="white" fill-opacity="0.5"/>
<ellipse opacity="0.9" cx="3523.5" cy="2583.5" rx="3.78571" ry="26.5" transform="rotate(-90 3523.5 2583.5)" fill="white" fill-opacity="0.5"/>
</svg>
